<svg xmlns="http://www.w3.org/2000/svg" xmlns:xlink="http://www.w3.org/1999/xlink" width="69" height="66" viewBox="0 0 69 66">
    <defs>
        <linearGradient id="a" x1="-24.711%" x2="38.258%" y1="100%" y2="27.492%">
            <stop offset="0%"/>
            <stop offset="100%" stop-opacity="0"/>
        </linearGradient>
        <filter id="b" width="115.2%" height="110%" x="-7.6%" y="-5%" filterUnits="objectBoundingBox">
            <feGaussianBlur in="SourceGraphic" stdDeviation="1"/>
        </filter>
        <rect id="c" width="58.5" height="14" y="1" rx="1.4"/>
    </defs>
    <g fill="none" fill-rule="evenodd">
        <g transform="translate(13 4)">
            <path fill="url(#a)" d="M20.455 60.107l39.379-35.592L28.153 0z" filter="url(#b)" opacity=".656"/>
            <path fill="#FFF" d="M14.26 46.417C6.122 44.019.187 36.547.187 27.701.188 16.92 9.004 8.18 19.878 8.18S39.567 16.92 39.567 27.7c0 8.132-5.014 15.102-12.144 18.038l-6.767 11.575-6.397-10.897z"/>
            <ellipse cx="19.957" cy="27.813" fill="#549E22" rx="16.957" ry="16.813"/>
            <text fill="#FFF" font-family="RobotoSlab-Bold, Roboto Slab" font-size="18" font-weight="bold">
                <tspan x="7.405" y="33">9</tspan> <tspan x="17.433" y="33" font-size="11">/10</tspan>
            </text>
        </g>
        <g transform="translate(3 2)">
            <use fill="#282F74" xlink:href="#c"/>
            <rect width="60.6" height="16.1" x="-1.05" y="-.05" stroke="#FFF" stroke-width="2.1" rx="1.4"/>
        </g>
        <text fill="#FFF" font-family="Symtext" font-size="10" transform="translate(3 2)">
            <tspan x="3.5" y="12">Assigned</tspan>
        </text>
    </g>
</svg>
