<svg xmlns="http://www.w3.org/2000/svg" xmlns:xlink="http://www.w3.org/1999/xlink" width="69" height="67" viewBox="0 0 69 67">
    <defs>
        <linearGradient id="a" x1="-24.711%" x2="38.258%" y1="100%" y2="27.492%">
            <stop offset="0%"/>
            <stop offset="100%" stop-opacity="0"/>
        </linearGradient>
        <filter id="b" width="115.2%" height="110%" x="-7.6%" y="-5%" filterUnits="objectBoundingBox">
            <feGaussianBlur in="SourceGraphic" stdDeviation="1"/>
        </filter>
        <circle id="c" cx="20" cy="27" r="18"/>
        <rect id="d" width="58.5" height="14" y="1" rx="1.4"/>
    </defs>
    <g fill="none" fill-rule="evenodd">
        <path fill="url(#a)" d="M20.455 60.107l39.379-35.592L28.153 0z" filter="url(#b)" opacity=".656" transform="translate(13 5)"/>
        <path fill="#FFF" d="M27.26 51.417c-8.137-2.398-14.072-9.87-14.072-18.716 0-10.781 8.816-19.521 19.69-19.521S52.567 21.92 52.567 32.7c0 8.132-5.014 15.102-12.144 18.038l-6.767 11.575-6.397-10.897z"/>
        <g transform="translate(13 5)">
            <use fill="#FFF" xlink:href="#c"/>
            <circle cx="20" cy="27" r="17" stroke="#E68618" stroke-width="2"/>
        </g>
        <text fill="#E88719" font-family="RobotoSlab-Bold, Roboto Slab" font-size="18" font-weight="bold" transform="translate(13 5)">
            <tspan x="7.444" y="33">2</tspan> <tspan x="17.393" y="33" font-size="11">/10</tspan>
        </text>
        <g>
            <g transform="translate(3 2)">
                <use fill="#282F74" xlink:href="#d"/>
                <rect width="60.6" height="16.1" x="-1.05" y="-.05" stroke="#FFF" stroke-width="2.1" rx="1.4"/>
            </g>
            <text fill="#FFF" font-family="Symtext" font-size="10" transform="translate(3 2)">
                <tspan x="3.5" y="12">Assigned</tspan>
            </text>
        </g>
    </g>
</svg>
