<svg xmlns="http://www.w3.org/2000/svg" width="60" height="11" viewBox="0 0 60 11">
    <g fill="none" fill-rule="evenodd">
        <path fill="#FFC800" d="M5.812 9.078l-3.416 1.87.652-3.961L.284 4.182l3.82-.578L5.812 0 7.52 3.604l3.82.578-2.764 2.805.653 3.96zM29.776 9.078l-3.416 1.87.653-3.961-2.764-2.805 3.82-.578L29.775 0l1.709 3.604 3.82.578-2.765 2.805.653 3.96zM17.794 9.078l-3.416 1.87.652-3.961-2.763-2.805 3.82-.578L17.793 0l1.709 3.604 3.82.578-2.765 2.805.653 3.96zM41.759 9.078l-3.417 1.87.653-3.961-2.764-2.805 3.82-.578L41.758 0l1.708 3.604 3.82.578-2.765 2.805.653 3.96z"/>
        <path fill="#647981" d="M54.188 9.078l-3.417 1.87.653-3.961-2.764-2.805 3.82-.578L54.188 0l1.708 3.604 3.82.578-2.764 2.805.652 3.96z" opacity=".4"/>
    </g>
</svg>
