<svg xmlns="http://www.w3.org/2000/svg" width="44" height="41" viewBox="0 0 44 41">
    <defs>
        <linearGradient id="a" x1="-24.711%" x2="38.258%" y1="100%" y2="27.492%">
            <stop offset="0%"/>
            <stop offset="100%" stop-opacity="0"/>
        </linearGradient>
        <filter id="b" width="115.2%" height="112.2%" x="-7.6%" y="-6.1%" filterUnits="objectBoundingBox">
            <feGaussianBlur in="SourceGraphic" stdDeviation="1"/>
        </filter>
    </defs>
    <g fill="none" fill-rule="evenodd">
        <path fill="url(#a)" d="M12 49.273S25.574 43.84 37.288 32.46s14.09-19.503 14.09-19.503L25.574 0 12 49.273z" filter="url(#b)" opacity=".35" transform="translate(0 -10)"/>
        <g transform="translate(0 5)">
            <path fill="#282F74" fill-rule="nonzero" d="M12.5 0C5.596 0 0 5.911 0 13.204c0 7.877 9.465 18.042 11.923 20.548.323.33.83.33 1.154 0C15.535 31.246 25 21.082 25 13.204 25 5.91 19.404 0 12.5 0z"/>
            <circle cx="12.5" cy="11.5" r="4.5" fill="#FFF"/>
        </g>
    </g>
</svg>
