<svg xmlns="http://www.w3.org/2000/svg" width="20" height="18" viewBox="0 0 20 18">
    <path fill="#1DACE5" fill-rule="evenodd" d="M15.484 9.664l-6.216 6.429a.467.467 0 0 1-.27.107.36.36 0 0 1-.271-.107L2.51 9.664C1.54 8.664.85 7.65.441 6.621.032 5.593-.092 4.643.067 3.771A4.358 4.358 0 0 1 1.263 1.48C2.205.507 3.349.02 4.693.02c1.345 0 2.488.486 3.431 1.458.347.357.638.757.873 1.2.236-.443.527-.843.874-1.2C10.813.493 11.957 0 13.3 0c1.345 0 2.495.493 3.452 1.479a4.294 4.294 0 0 1 1.185 2.292c.152.872.024 1.822-.385 2.85-.409 1.029-1.098 2.043-2.069 3.043z"/>
</svg>
