<svg xmlns="http://www.w3.org/2000/svg" width="20" height="18" viewBox="0 0 20 18">
    <path fill="none" fill-rule="evenodd" stroke="#1DACE5" stroke-width="2.222" d="M9.997 16.593l6.41-6.627v-.002c.982-1.012 1.667-2.019 2.064-3.017.382-.962.497-1.812.365-2.565-.13-.747-.465-1.394-1.02-1.965-.854-.881-1.845-1.306-3.037-1.306-1.19 0-2.17.423-3.014 1.306a4.741 4.741 0 0 0-.787 1.081l-.981 1.844-.98-1.844c-.214-.4-.476-.76-.788-1.081-.838-.865-1.821-1.282-3.014-1.282-1.193 0-2.176.417-3.015 1.282A3.733 3.733 0 0 0 1.167 4.39c-.137.75-.025 1.598.356 2.557.397.998 1.082 2.005 2.065 3.019l6.409 6.627zm8.006-5.082z"/>
</svg>
