<svg xmlns="http://www.w3.org/2000/svg" width="16" height="16" viewBox="0 0 16 16">
    <g fill="none" fill-rule="evenodd">
        <g>
            <circle cx="8" cy="8" r="8" fill="#C1D2D9"/>
            <path fill="#FFF" fill-rule="nonzero" d="M9.703 11.802l-.153.627c-.52.204-2.318 1.062-3.355.149a1.317 1.317 0 0 1-.463-1.034c0-.784.258-1.467.721-3.107.082-.31.181-.712.181-1.031 0-.55-.208-.696-.775-.696-.276 0-.582.098-.859.202l.154-.627c.617-.252 1.393-.558 2.057-.558.996 0 1.729.497 1.729 1.442 0 .273-.047.75-.146 1.08l-.573 2.027c-.118.41-.333 1.313-.001 1.581.327.264 1.101.125 1.482-.055zM8.675 4.5a1.25 1.25 0 1 1 0-2.5 1.25 1.25 0 0 1 0 2.5z"/>
        </g>
    </g>
</svg>
