<svg xmlns="http://www.w3.org/2000/svg" xmlns:xlink="http://www.w3.org/1999/xlink" width="79" height="79" viewBox="0 0 79 79">
    <defs>
        <rect id="a" width="79" height="79" rx="6"/>
        <path id="b" d="M21.63 20.271c0-3.287-3.164-5.952-7.065-5.952-3.902 0-7.065 2.665-7.065 5.952 0 .534.084 1.05.24 1.543 1.977 1.45 3.482 2.229 6.825 2.229 3.342 0 4.847-.943 6.826-2.236.155-.49.238-1.005.238-1.536z"/>
    </defs>
    <g fill="none" fill-rule="evenodd">
        <g>
            <use fill="#F8F8F8" xlink:href="#a"/>
            <rect width="78" height="78" x=".5" y=".5" stroke="#CCC" rx="6"/>
        </g>
        <g stroke-width="3.3" transform="translate(15 14)">
            <circle cx="25" cy="25" r="25" fill="#FFF" stroke="#A3B3BA" stroke-linecap="square" stroke-opacity=".5"/>
            <path stroke="#97A6AC" d="M25 0c13.807 0 25 11.193 25 25"/>
        </g>
        <g transform="translate(25 26)">
            <path fill="#FAAC18" fill-rule="nonzero" d="M11.67 23.234s-.642 2.914-1.713 2.556c-1.07-.357.125-3.003.125-3.003l1.588.447zM9.816 22.8s-1.177 2.735-2.159 2.198c-.981-.554.678-2.931.678-2.931l1.481.733zM17.45 23.234s.642 2.914 1.712 2.556c1.07-.357-.125-3.003-.125-3.003l-1.588.447z"/>
            <path fill="#FAAC18" fill-rule="nonzero" d="M18.892 22.8s1.178 2.735 2.16 2.198c.98-.554-.679-2.931-.679-2.931l-1.48.733z"/>
            <path fill="#D89614" fill-rule="nonzero" d="M9.78 22.787l.035.018s-.09.214-.25.518c-.018.054-.035.125-.053.179a14.28 14.28 0 0 0 1.66.5c.142-.429.213-.768.213-.768l-1.606-.447z"/>
            <path fill="#D89614" fill-rule="nonzero" d="M9.942 22.782l-1.445-.715s-.197.286-.429.697c.518.304 1.053.536 1.57.733.036-.054.054-.108.09-.161.107-.322.214-.536.214-.554zM19.02 22.805l.035-.018-1.606.447s.072.322.214.733a15.72 15.72 0 0 0 1.66-.519.872.872 0 0 0-.054-.125c-.16-.286-.25-.518-.25-.518z"/>
            <path fill="#D89614" fill-rule="nonzero" d="M18.892 22.782c0 .018.107.232.215.536.017.036.035.09.07.125a12.37 12.37 0 0 0 1.571-.733c-.214-.375-.392-.643-.392-.643l-1.464.715z"/>
            <path fill="#F9B93B" d="M24.528 18.566c-.443 1.073-1.007 2.046-1.717 2.863-2.165 2.492-5.198 3.279-8.247 3.254-3.133.025-6.08-.762-8.246-3.254-.86-.989-1.505-2.207-1.981-3.554-.462 1.006-1.134 1.9-2.09 2.566 0 0-4.865-5.257.913-11.353.072-4.668.964-8.65 1.252-8.762.558-.215 2.928 2.31 2.928 2.31 2.829-1 5.25-1.314 7.224-1.288 1.974-.026 4.396.288 7.225 1.287 0 0 2.37-2.524 2.928-2.309.302.117 1.272 4.506 1.256 9.474 4.774 5.788.282 10.641.282 10.641a6.01 6.01 0 0 1-1.727-1.875z"/>
            <path fill="#FFF0BF" d="M19.706 3.67c-2.503 1.275-7.001 1.745-10.283 0-2.567-1.364-5.288 2.318-5.288 5.177 0 2.858 2.367 5.176 5.288 5.176 2.496 0 4.587-1.694 5.142-3.97.555 2.276 2.645 3.97 5.141 3.97 2.92 0 5.288-2.318 5.288-5.176 0-2.86-2.697-6.495-5.288-5.177"/>
            <path fill="#FFF" d="M16.116 8.722c0 2.086 1.727 3.777 3.858 3.777 2.13 0 3.858-1.691 3.858-3.777 0-2.086-1.728-3.778-3.858-3.778-2.131 0-3.858 1.692-3.858 3.778"/>
            <path fill="#724B3F" d="M17.045 9.063c0-1.32 1.093-2.39 2.44-2.39 1.348 0 2.44 1.07 2.44 2.39s-1.092 2.389-2.44 2.389c-1.347 0-2.44-1.07-2.44-2.39zm2.65-1.16a.69.69 0 0 0 .697.682.69.69 0 0 0 .697-.682.69.69 0 0 0-.697-.683.69.69 0 0 0-.698.683z"/>
            <path fill="#FFF" d="M13.014 8.722c0 2.086-1.728 3.777-3.858 3.777-2.131 0-3.858-1.691-3.858-3.777 0-2.086 1.727-3.778 3.858-3.778 2.13 0 3.858 1.692 3.858 3.778"/>
            <path fill="#724B3F" d="M12.084 9.063c0 1.32-1.093 2.389-2.44 2.389-1.348 0-2.44-1.07-2.44-2.39 0-1.319 1.092-2.388 2.44-2.388 1.347 0 2.44 1.07 2.44 2.389zm-2.65-1.16a.69.69 0 0 0-.697-.683.69.69 0 0 0-.697.683.69.69 0 0 0 .697.682.69.69 0 0 0 .698-.682z"/>
            <path fill="#F9B93B" d="M13.179 10.35l1.385-1.287v3.16L13.18 10.35zm1.386-1.287l1.385 1.287-1.385 1.873v-3.16z"/>
            <use fill="#FFF0BF" xlink:href="#b"/>
        </g>
    </g>
</svg>
