<svg xmlns="http://www.w3.org/2000/svg" xmlns:xlink="http://www.w3.org/1999/xlink" width="56" height="54" viewBox="0 0 56 54">
    <defs>
        <linearGradient id="a" x1="-24.711%" x2="38.258%" y1="100%" y2="27.492%">
            <stop offset="0%"/>
            <stop offset="100%" stop-opacity="0"/>
        </linearGradient>
        <filter id="b" width="115.2%" height="110%" x="-7.6%" y="-5%" filterUnits="objectBoundingBox">
            <feGaussianBlur in="SourceGraphic" stdDeviation="1"/>
        </filter>
        <circle id="c" cx="20" cy="28" r="18"/>
        <path id="d" d="M10.076.04H0v13.366h10.076V.039z"/>
        <path id="e" d="M20.653 18.599c.129-.459.198-.94.198-1.437 0-3.075-2.624-5.569-5.862-5.569-3.237 0-5.862 2.494-5.862 5.57 0 .499.07.982.2 1.442 1.624 1.205 3.594 1.614 5.662 1.598 2.016.016 4.023-.395 5.664-1.604"/>
        <path id="g" d="M.017 3.343c.673.442 1.38.84 2.115 1.187V.026H.017v3.317z"/>
        <path id="i" d="M.074 3.942h10.129V.032H.074z"/>
    </defs>
    <g fill="none" fill-rule="evenodd">
        <path fill="url(#a)" d="M20.455 60.107l39.379-35.592L28.153 0z" filter="url(#b)" opacity=".656" transform="translate(0 -8)"/>
        <path fill="#FFF" d="M14.26 38.417C6.122 36.019.187 28.547.187 19.701.188 8.92 9.004.18 19.878.18S39.567 8.92 39.567 19.7c0 8.132-5.014 15.102-12.144 18.038l-6.767 11.575-6.397-10.897z"/>
        <g transform="translate(0 -8)">
            <use fill="#FFF" xlink:href="#c"/>
            <circle cx="20" cy="28" r="17" stroke="#C4D4DB" stroke-width="2"/>
        </g>
        <g fill-rule="nonzero">
            <path fill="#FAAC18" d="M17.569 30.003s-.533 2.41-1.421 2.114c-.889-.295.103-2.483.103-2.483l1.318.37zM16.03 29.644s-.977 2.262-1.79 1.819c-.815-.459.562-2.425.562-2.425l1.229.606zM22.364 30.003s.533 2.41 1.422 2.114c.888-.295-.104-2.483-.104-2.483l-1.318.37z"/>
            <path fill="#FAAC18" d="M23.562 29.644s.977 2.262 1.791 1.819c.815-.459-.562-2.425-.562-2.425l-1.23.606z"/>
            <path fill="#D89614" d="M16 29.634l.03.015s-.074.177-.208.428c-.015.045-.03.104-.044.148.474.178.947.31 1.377.414.118-.355.178-.636.178-.636L16 29.633z"/>
            <path fill="#D89614" d="M16.135 29.63l-1.2-.592s-.162.237-.355.577c.43.251.874.443 1.303.606.03-.045.045-.089.074-.133.09-.266.178-.444.178-.459zM23.667 29.649l.03-.015-1.333.37s.06.265.178.605c.43-.103.888-.25 1.377-.428-.015-.045-.03-.074-.044-.104-.134-.236-.208-.428-.208-.428z"/>
            <path fill="#D89614" d="M23.562 29.63c0 .014.089.192.178.443.014.03.03.074.059.103.43-.162.873-.37 1.303-.606-.178-.31-.326-.532-.326-.532l-1.214.591z"/>
        </g>
        <path fill="#465D8F" d="M19.699 7.905c.003.16-.181.294-.41.298-.23.004-.419-.123-.422-.283l-.005-.291c-.003-.161.181-.295.41-.299.23-.004.419.123.422.284l.005.291"/>
        <path fill="#122738" d="M14.067 12.68s-.831-3.957 4.336-4.813c0 0 6.938-1.031 7.114 4.31 0 0-3.153-1.247-11.45.504"/>
        <path fill="#465D8F" d="M14.067 12.68s5.942-5.577 11.046-4.313c0 0 3.573 1.121.404 3.81 0 0-3.38-.807-11.45.504M15.382 15.174c-1.113.499-2.447 1.607-3.256 3.202-.809 1.594-1.092 3.676-1.361 5.29-.27 1.612-.526 2.756.06 3.332.584.576 2.01.583 4.464.587 2.455.004 5.94.004 8.343-.04 2.404-.045 3.726-.134 4.67-.212.943-.077 1.508-.143 1.556-1.44.048-1.299-.42-3.829-.745-5.812-.325-1.984-.506-3.421-1.031-4.278-.525-.855-1.394-1.13-3.085-1.184-1.691-.054-4.205.113-5.908.14-1.703.028-2.594-.083-3.707.415"/>
        <g transform="translate(5.096 10.385)">
            <g fill="#F8812C">
                <path d="M23.74 6.15s-2.097 7.7 1.942 10.508c0 0 4.654-5.016-1.941-10.508zM3.776 16.658S-.877 11.642 5.718 6.15c0 0 2.097 7.7-1.942 10.508"/>
            </g>
            <path fill="#F9B93B" d="M20.984 1.932C18.637 1.106 16.627.846 14.989.867c-1.638-.02-3.647.239-5.994 1.065 0 0-1.968-2.088-2.43-1.91-.463.179-2.816 12.408 1.581 17.45 1.797 2.062 4.243 2.712 6.843 2.692 2.53.02 5.046-.63 6.843-2.691C26.23 12.43 23.876.2 23.413.023c-.462-.179-2.43 1.909-2.43 1.909z"/>
            <path fill="#FFF0BF" d="M19.256 2.788c-2.078 1.053-5.81 1.443-8.533 0-2.13-1.128-4.388 1.916-4.388 4.28 0 2.364 1.964 4.28 4.388 4.28 2.07 0 3.806-1.4 4.266-3.283.46 1.883 2.196 3.283 4.267 3.283 2.423 0 4.387-1.916 4.387-4.28 0-2.364-2.237-5.37-4.387-4.28"/>
            <path fill="#FFF" d="M16.276 6.965c0 1.725 1.433 3.123 3.201 3.123 1.769 0 3.202-1.398 3.202-3.123 0-1.725-1.433-3.124-3.202-3.124-1.768 0-3.2 1.399-3.2 3.124"/>
            <path fill="#724B3F" d="M17.047 7.247c0 1.091.907 1.976 2.025 1.976 1.119 0 2.025-.885 2.025-1.976s-.906-1.976-2.025-1.976c-1.118 0-2.025.885-2.025 1.976"/>
            <path fill="#FFF" d="M19.246 6.287c0 .312.259.565.578.565.32 0 .579-.253.579-.565a.572.572 0 0 0-.579-.564.572.572 0 0 0-.578.564M13.702 6.965c0 1.725-1.433 3.123-3.201 3.123S7.3 8.69 7.3 6.965c0-1.725 1.433-3.124 3.2-3.124 1.769 0 3.202 1.399 3.202 3.124"/>
            <path fill="#724B3F" d="M12.93 7.247c0 1.091-.906 1.976-2.024 1.976-1.119 0-2.025-.885-2.025-1.976s.906-1.976 2.025-1.976c1.118 0 2.025.885 2.025 1.976"/>
            <path fill="#FFF" d="M10.732 6.287c0 .312-.259.565-.578.565a.572.572 0 0 1-.579-.565c0-.311.26-.564.579-.564.32 0 .578.253.578.564"/>
            <path fill="#FFA300" d="M13.84 8.311l1.15 1.549V7.247z"/>
            <path fill="#FF890D" d="M14.99 7.247V9.86l1.149-1.55z"/>
            <path fill="#C8E8ED" d="M20.653 18.599c.129-.459.198-.94.198-1.437 0-3.075-2.624-5.569-5.862-5.569-3.237 0-5.862 2.494-5.862 5.57 0 .499.07.982.2 1.442 1.624 1.205 3.594 1.614 5.662 1.598 2.016.016 4.023-.395 5.664-1.604"/>
            <mask id="f" fill="#fff">
                <use xlink:href="#e"/>
            </mask>
            <use fill="#FFF0BF" xlink:href="#e"/>
            <g mask="url(#f)">
                <path fill="#00A9A7" d="M14.718 12.623s-1.165 3.9-1.318 4.228c-.153.329 1.139 1.851 1.43 1.936.293.086 1.386-1.12 1.49-1.28.103-.161-.935-4.926-.935-4.926l-.667.042"/>
                <path fill="#465D8F" d="M13.713 15.917c-.098.313-.183.576-.243.747l2.062 1.683a9.22 9.22 0 0 0 .59-.603l-2.409-1.827M14.183 14.398l-.204.666 2.265 1.76c-.047-.277-.11-.617-.182-.984l-1.88-1.442M14.956 11.708c-.125-.022-.291-.059-.439-.004a.666.666 0 0 0-.34.337c-.065.14-.065.274-.031.509.034.234.103.568.225.763.122.195.297.251.502.261.204.01.438-.028.616-.13a.787.787 0 0 0 .359-.473.884.884 0 0 0-.05-.657c-.11-.21-.33-.388-.481-.482-.152-.093-.235-.102-.36-.124"/>
                <path fill="#FFF" d="M13.63 11.478a26.75 26.75 0 0 0-1.243.1c-.3.039-.366.079-.288.283.077.204.296.573.59.879.294.305.663.548.93.647.267.1.433.055.659-.045.226-.1.513-.254.646-.537.133-.283.112-.694.031-.947-.08-.253-.22-.349-.43-.387-.208-.039-.487-.02-.894.007"/>
                <path fill="#FFF" d="M16.176 11.308c.407-.027.944-.063 1.247-.066.302-.002.372.029.325.242-.048.212-.214.607-.462.949-.249.341-.58.631-.868.778a.999.999 0 0 1-.774.084.92.92 0 0 1-.6-.487 1.78 1.78 0 0 1-.127-.947c.045-.262.17-.375.372-.441.201-.066.48-.085.887-.112"/>
            </g>
        </g>
        <path fill="#7F3F95" d="M12.648 26.223"/>
        <g transform="translate(10.515 26.197)">
            <mask id="h" fill="#fff">
                <use xlink:href="#g"/>
            </mask>
            <path fill="#7F3F95" d="M2.036.08C1.068.703.017 6.27.017 6.27S1.067.702 2.036.08" mask="url(#h)"/>
        </g>
        <g fill="#41A5A4">
            <path d="M11.158 17.774c.152.371-.048 2.128-.05 2.967-.002.443.476 3.616.397 3.786-.06.132-.366.296-.504.157-.532-.531-.86-2.63-.836-4.325.023-1.695.239-2.294.252-2.638.013-.344.101-.462.167-.461.145.006.423.143.574.514zM29.183 17.955c-.151.37.048 2.127.05 2.966.002.444-.476 3.616-.397 3.786.061.132.366.296.505.158.532-.532.859-2.63.836-4.326-.024-1.695-.24-2.294-.253-2.637-.013-.344-.101-.462-.167-.462-.144.006-.423.144-.574.515z"/>
        </g>
    </g>
</svg>
