<svg xmlns="http://www.w3.org/2000/svg" xmlns:xlink="http://www.w3.org/1999/xlink" width="56" height="54" viewBox="0 0 56 54">
    <defs>
        <linearGradient id="a" x1="-24.711%" x2="38.258%" y1="100%" y2="27.492%">
            <stop offset="0%"/>
            <stop offset="100%" stop-opacity="0"/>
        </linearGradient>
        <filter id="b" width="115.2%" height="110%" x="-7.6%" y="-5%" filterUnits="objectBoundingBox">
            <feGaussianBlur in="SourceGraphic" stdDeviation="1"/>
        </filter>
        <circle id="c" cx="20" cy="28" r="18"/>
        <path id="d" d="M17.948 16.763c0-2.719-2.625-4.922-5.862-4.922-3.238 0-5.863 2.203-5.863 4.922 0 .441.07.868.2 1.275 1.64 1.199 2.89 1.844 5.663 1.844s4.022-.78 5.664-1.85a4.19 4.19 0 0 0 .198-1.27z"/>
    </defs>
    <g fill="none" fill-rule="evenodd">
        <path fill="url(#a)" d="M20.455 60.107l39.379-35.592L28.153 0z" filter="url(#b)" opacity=".656" transform="translate(0 -8)"/>
        <path fill="#FFF" d="M14.26 38.417C6.122 36.019.187 28.547.187 19.701.188 8.92 9.004.18 19.878.18S39.567 8.92 39.567 19.7c0 8.132-5.014 15.102-12.144 18.038l-6.767 11.575-6.397-10.897z"/>
        <g transform="translate(0 -8)">
            <use fill="#FFF" xlink:href="#c"/>
            <circle cx="20" cy="28" r="17" stroke="#A3B3BA" stroke-width="2"/>
        </g>
        <g transform="translate(8 9)">
            <path fill="#FAAC18" fill-rule="nonzero" d="M9.684 19.213s-.533 2.41-1.422 2.114c-.888-.296.104-2.484.104-2.484l1.318.37zM8.146 18.853s-.978 2.262-1.792 1.819c-.814-.459.563-2.425.563-2.425l1.229.606zM14.48 19.213s.532 2.41 1.42 2.114c.889-.296-.103-2.484-.103-2.484l-1.318.37z"/>
            <path fill="#FAAC18" fill-rule="nonzero" d="M15.677 18.853s.977 2.262 1.791 1.819c.815-.459-.562-2.425-.562-2.425l-1.23.606z"/>
            <path fill="#D89614" fill-rule="nonzero" d="M8.115 18.843l.03.015s-.075.177-.208.428c-.015.045-.03.104-.044.148.473.178.947.31 1.377.414.118-.355.177-.635.177-.635l-1.332-.37z"/>
            <path fill="#D89614" fill-rule="nonzero" d="M8.25 18.839l-1.2-.592s-.162.237-.355.577c.43.251.874.443 1.303.606.03-.044.045-.089.074-.133.089-.266.178-.444.178-.458zM15.782 18.858l.03-.015-1.333.37s.06.266.178.606c.43-.104.888-.252 1.377-.429-.015-.044-.03-.074-.045-.104a3.64 3.64 0 0 1-.207-.428z"/>
            <path fill="#D89614" fill-rule="nonzero" d="M15.677 18.839c0 .014.089.192.177.443.015.03.03.074.06.104.429-.163.873-.37 1.303-.606-.178-.31-.326-.533-.326-.533l-1.214.592z"/>
            <path fill="#F9B93B" d="M20.35 15.359c-.367.885-.834 1.687-1.422 2.361-1.796 2.061-4.313 2.711-6.843 2.691-2.6.02-5.046-.63-6.843-2.69-.712-.817-1.246-1.822-1.641-2.933-.382.83-.938 1.568-1.729 2.118 0 0-4.043-4.36.75-9.399.06-3.857.8-7.145 1.039-7.237.463-.179 2.43 1.909 2.43 1.909 2.347-.826 4.357-1.086 5.994-1.065 1.638-.02 3.648.24 5.995 1.065 0 0 1.967-2.088 2.43-1.91.25.097 1.054 3.722 1.042 7.827 3.96 4.786.227 8.81.227 8.81a4.957 4.957 0 0 1-1.429-1.547z"/>
            <path fill="#FFF0BF" d="M16.352 3.035c-2.078 1.054-5.81 1.443-8.533 0-2.13-1.128-4.388 1.916-4.388 4.28 0 2.365 1.965 4.28 4.388 4.28 2.071 0 3.806-1.4 4.266-3.282.461 1.882 2.196 3.283 4.267 3.283 2.423 0 4.387-1.916 4.387-4.28 0-2.365-2.237-5.371-4.387-4.28"/>
            <path fill="#FFF" d="M13.372 7.212c0 1.725 1.434 3.123 3.202 3.123s3.201-1.398 3.201-3.123c0-1.725-1.433-3.123-3.201-3.123s-3.202 1.398-3.202 3.123"/>
            <path fill="#724B3F" d="M14.144 7.494c0-1.09.906-1.975 2.025-1.975 1.118 0 2.025.884 2.025 1.975 0 1.092-.907 1.976-2.025 1.976-1.119 0-2.025-.884-2.025-1.976zm2.198-.96c0 .312.26.565.579.565.32 0 .578-.253.578-.564a.572.572 0 0 0-.578-.565.572.572 0 0 0-.579.565z"/>
            <path fill="#FFF" d="M10.798 7.212c0 1.725-1.433 3.123-3.2 3.123-1.769 0-3.202-1.398-3.202-3.123 0-1.725 1.433-3.123 3.201-3.123s3.201 1.398 3.201 3.123"/>
            <path fill="#724B3F" d="M10.027 7.494c0 1.092-.906 1.976-2.025 1.976-1.118 0-2.025-.884-2.025-1.976 0-1.09.907-1.975 2.025-1.975 1.119 0 2.025.884 2.025 1.975zm-2.198-.96a.572.572 0 0 0-.579-.564.572.572 0 0 0-.579.565c0 .311.26.564.58.564.318 0 .578-.253.578-.564z"/>
            <path fill="#F9B93B" d="M10.936 8.558l1.15-1.064v2.613l-1.15-1.549zm1.15-1.064l1.149 1.064-1.15 1.55V7.493z"/>
            <use fill="#FFF0BF" xlink:href="#d"/>
        </g>
    </g>
</svg>
