<svg xmlns="http://www.w3.org/2000/svg" xmlns:xlink="http://www.w3.org/1999/xlink" width="56" height="53" viewBox="0 0 56 53">
    <defs>
        <linearGradient id="a" x1="-24.711%" x2="38.258%" y1="100%" y2="27.492%">
            <stop offset="0%"/>
            <stop offset="100%" stop-opacity="0"/>
        </linearGradient>
        <filter id="b" width="115.2%" height="110%" x="-7.6%" y="-5%" filterUnits="objectBoundingBox">
            <feGaussianBlur in="SourceGraphic" stdDeviation="1"/>
        </filter>
        <path id="c" d="M10.076.04H0v13.366h10.076V.039z"/>
        <path id="d" d="M20.653 18.599c.129-.459.198-.94.198-1.437 0-3.075-2.624-5.569-5.862-5.569-3.237 0-5.862 2.494-5.862 5.57 0 .499.07.982.2 1.442 1.624 1.205 3.594 1.614 5.662 1.598 2.016.016 4.023-.395 5.664-1.604"/>
        <path id="f" d="M.017 3.343c.673.442 1.38.84 2.115 1.187V.026H.017v3.317z"/>
        <path id="h" d="M.074 3.942h10.129V.032H.074z"/>
    </defs>
    <g fill="none" fill-rule="evenodd">
        <path fill="url(#a)" d="M20.455 60.107l39.379-35.592L28.153 0z" filter="url(#b)" opacity=".656" transform="translate(0 -9)"/>
        <path fill="#FFF" d="M14.07 38.237C5.935 35.84 0 28.367 0 19.522 0 8.74 8.815 0 19.69 0c10.873 0 19.688 8.74 19.688 19.522 0 8.131-5.014 15.101-12.144 18.037l-6.767 11.576-6.396-10.898z"/>
        <path fill="#C4D4DB" d="M3 19.419C3 10.365 10.348 3 19.38 3c9.03 0 16.378 7.365 16.378 16.419 0 9.053-7.347 16.418-16.379 16.418C10.348 35.837 3 28.472 3 19.42z"/>
        <g fill-rule="nonzero">
            <path fill="#FAAC18" d="M17.047 29.944s-.533 2.41-1.422 2.114c-.888-.296.104-2.484.104-2.484l1.318.37zM15.508 29.585s-.977 2.261-1.791 1.818c-.815-.458.562-2.425.562-2.425l1.23.607zM21.842 29.944s.533 2.41 1.421 2.114c.889-.296-.103-2.484-.103-2.484l-1.318.37z"/>
            <path fill="#FAAC18" d="M23.04 29.585s.977 2.261 1.791 1.818c.814-.458-.563-2.425-.563-2.425l-1.228.607z"/>
            <path fill="#D89614" d="M15.478 29.574l.03.015s-.075.177-.208.429c-.015.044-.03.103-.045.147.474.178.948.31 1.377.414.119-.354.178-.635.178-.635l-1.332-.37z"/>
            <path fill="#D89614" d="M15.613 29.57l-1.2-.592s-.163.237-.355.577c.43.251.874.443 1.303.606.03-.044.044-.089.074-.133.089-.266.178-.443.178-.458zM23.145 29.589l.03-.015-1.333.37s.06.266.178.606c.429-.104.888-.252 1.377-.429-.015-.044-.03-.074-.045-.103-.133-.237-.207-.43-.207-.43z"/>
            <path fill="#D89614" d="M23.04 29.57c0 .015.088.192.177.443.015.03.03.074.06.104.429-.163.873-.37 1.302-.606-.177-.31-.325-.533-.325-.533l-1.214.592z"/>
        </g>
        <path fill="#465D8F" d="M19.176 7.845c.003.161-.18.295-.41.299-.23.004-.418-.123-.421-.284l-.005-.291c-.003-.16.18-.294.41-.298.23-.004.418.123.421.283l.005.291"/>
        <path fill="#122738" d="M13.544 12.62s-.83-3.957 4.336-4.813c0 0 6.94-1.031 7.114 4.31 0 0-3.152-1.247-11.45.504"/>
        <path fill="#465D8F" d="M13.544 12.62s5.942-5.577 11.047-4.312c0 0 3.573 1.12.403 3.81 0 0-3.38-.807-11.45.503M14.86 15.115c-1.113.498-2.448 1.606-3.257 3.201-.808 1.595-1.091 3.677-1.36 5.29-.27 1.612-.526 2.756.059 3.332.585.576 2.01.584 4.465.588 2.455.003 5.94.003 8.343-.041 2.403-.045 3.726-.134 4.67-.212.943-.077 1.508-.143 1.556-1.44.048-1.298-.42-3.828-.746-5.812-.325-1.984-.506-3.421-1.03-4.277-.526-.856-1.394-1.13-3.085-1.185-1.692-.053-4.206.113-5.909.14-1.702.029-2.593-.083-3.706.416"/>
        <g transform="translate(4.574 10.325)">
            <g fill="#F8812C">
                <path d="M23.74 6.15s-2.097 7.7 1.942 10.508c0 0 4.654-5.016-1.941-10.508zM3.776 16.658S-.877 11.642 5.718 6.15c0 0 2.097 7.7-1.942 10.508"/>
            </g>
            <path fill="#F9B93B" d="M20.984 1.932C18.637 1.106 16.627.846 14.989.867c-1.638-.02-3.647.239-5.994 1.065 0 0-1.968-2.088-2.43-1.91-.463.179-2.816 12.408 1.581 17.45 1.797 2.062 4.243 2.712 6.843 2.692 2.53.02 5.046-.63 6.843-2.691C26.23 12.43 23.876.2 23.413.023c-.462-.179-2.43 1.909-2.43 1.909z"/>
            <path fill="#FFF0BF" d="M19.256 2.788c-2.078 1.053-5.81 1.443-8.533 0-2.13-1.128-4.388 1.916-4.388 4.28 0 2.364 1.964 4.28 4.388 4.28 2.07 0 3.806-1.4 4.266-3.283.46 1.883 2.196 3.283 4.267 3.283 2.423 0 4.387-1.916 4.387-4.28 0-2.364-2.237-5.37-4.387-4.28"/>
            <path fill="#FFF" d="M16.276 6.965c0 1.725 1.433 3.123 3.201 3.123 1.769 0 3.202-1.398 3.202-3.123 0-1.725-1.433-3.124-3.202-3.124-1.768 0-3.2 1.399-3.2 3.124"/>
            <path fill="#724B3F" d="M17.047 7.247c0 1.091.907 1.976 2.025 1.976 1.119 0 2.025-.885 2.025-1.976s-.906-1.976-2.025-1.976c-1.118 0-2.025.885-2.025 1.976"/>
            <path fill="#FFF" d="M19.246 6.287c0 .312.259.565.578.565.32 0 .579-.253.579-.565a.572.572 0 0 0-.579-.564.572.572 0 0 0-.578.564M13.702 6.965c0 1.725-1.433 3.123-3.201 3.123S7.3 8.69 7.3 6.965c0-1.725 1.433-3.124 3.2-3.124 1.769 0 3.202 1.399 3.202 3.124"/>
            <path fill="#724B3F" d="M12.93 7.247c0 1.091-.906 1.976-2.024 1.976-1.119 0-2.025-.885-2.025-1.976s.906-1.976 2.025-1.976c1.118 0 2.025.885 2.025 1.976"/>
            <path fill="#FFF" d="M10.732 6.287c0 .312-.259.565-.578.565a.572.572 0 0 1-.579-.565c0-.311.26-.564.579-.564.32 0 .578.253.578.564"/>
            <path fill="#FFA300" d="M13.84 8.311l1.15 1.549V7.247z"/>
            <path fill="#FF890D" d="M14.99 7.247V9.86l1.149-1.55z"/>
            <path fill="#C8E8ED" d="M20.653 18.599c.129-.459.198-.94.198-1.437 0-3.075-2.624-5.569-5.862-5.569-3.237 0-5.862 2.494-5.862 5.57 0 .499.07.982.2 1.442 1.624 1.205 3.594 1.614 5.662 1.598 2.016.016 4.023-.395 5.664-1.604"/>
            <mask id="e" fill="#fff">
                <use xlink:href="#d"/>
            </mask>
            <use fill="#FFF0BF" xlink:href="#d"/>
            <g mask="url(#e)">
                <path fill="#00A9A7" d="M14.718 12.623s-1.165 3.9-1.318 4.228c-.153.329 1.139 1.851 1.43 1.936.293.086 1.386-1.12 1.49-1.28.103-.161-.935-4.926-.935-4.926l-.667.042"/>
                <path fill="#465D8F" d="M13.713 15.917c-.098.313-.183.576-.243.747l2.062 1.683a9.22 9.22 0 0 0 .59-.603l-2.409-1.827M14.183 14.398l-.204.666 2.265 1.76c-.047-.277-.11-.617-.182-.984l-1.88-1.442M14.956 11.708c-.125-.022-.291-.059-.439-.004a.666.666 0 0 0-.34.337c-.065.14-.065.274-.031.509.034.234.103.568.225.763.122.195.297.251.502.261.204.01.438-.028.616-.13a.787.787 0 0 0 .359-.473.884.884 0 0 0-.05-.657c-.11-.21-.33-.388-.481-.482-.152-.093-.235-.102-.36-.124"/>
                <path fill="#FFF" d="M13.63 11.478a26.75 26.75 0 0 0-1.243.1c-.3.039-.366.079-.288.283.077.204.296.573.59.879.294.305.663.548.93.647.267.1.433.055.659-.045.226-.1.513-.254.646-.537.133-.283.112-.694.031-.947-.08-.253-.22-.349-.43-.387-.208-.039-.487-.02-.894.007"/>
                <path fill="#FFF" d="M16.176 11.308c.407-.027.944-.063 1.247-.066.302-.002.372.029.325.242-.048.212-.214.607-.462.949-.249.341-.58.631-.868.778a.999.999 0 0 1-.774.084.92.92 0 0 1-.6-.487 1.78 1.78 0 0 1-.127-.947c.045-.262.17-.375.372-.441.201-.066.48-.085.887-.112"/>
            </g>
        </g>
        <path fill="#7F3F95" d="M12.126 26.163"/>
        <g transform="translate(9.993 26.137)">
            <mask id="g" fill="#fff">
                <use xlink:href="#f"/>
            </mask>
            <path fill="#7F3F95" d="M2.036.08C1.068.703.017 6.27.017 6.27S1.067.702 2.036.08" mask="url(#g)"/>
        </g>
        <g fill="#41A5A4">
            <path d="M10.636 17.715c.151.37-.048 2.127-.05 2.966-.002.444.476 3.616.397 3.786-.061.132-.366.296-.505.158-.532-.532-.859-2.63-.836-4.326.024-1.695.24-2.294.253-2.638.013-.344.101-.461.167-.461.144.006.423.144.574.515zM28.66 17.895c-.15.37.049 2.128.052 2.966.001.444-.477 3.617-.398 3.787.06.131.366.295.504.157.532-.531.86-2.63.836-4.325-.023-1.695-.239-2.294-.252-2.638-.013-.344-.101-.462-.167-.462-.145.007-.423.144-.574.515z"/>
        </g>
    </g>
</svg>
