<svg xmlns="http://www.w3.org/2000/svg" xmlns:xlink="http://www.w3.org/1999/xlink" width="44" height="44" viewBox="0 0 44 44">
    <defs>
        <path id="a" d="M11.336.045H0v15.347h11.336V.045z"/>
        <path id="b" d="M23.235 21.354a6.22 6.22 0 0 0 .223-1.65c0-3.53-2.953-6.393-6.595-6.393-3.643 0-6.595 2.863-6.595 6.394 0 .573.079 1.128.225 1.656 1.827 1.384 4.043 1.853 6.37 1.835 2.267.018 4.525-.453 6.372-1.842"/>
        <path id="d" d="M.02 3.838c.756.508 1.551.964 2.379 1.363V.03H.019v3.808z"/>
        <path id="f" d="M.084 4.525h11.394V.036H.084z"/>
    </defs>
    <g fill="none" fill-rule="evenodd">
        <circle cx="22" cy="22" r="22" fill="#FFF"/>
        <circle cx="22" cy="22" r="19" fill="#FFF" stroke="#C4D4DB" stroke-width="2"/>
        <g fill-rule="nonzero">
            <path fill="#FAAC18" d="M19.677 33.49s-.6 2.767-1.599 2.428c-1-.34.117-2.851.117-2.851l1.482.424zM17.947 33.079s-1.1 2.596-2.016 2.087c-.916-.526.633-2.783.633-2.783l1.383.696zM25.072 33.49s.6 2.767 1.6 2.428c.999-.34-.117-2.851-.117-2.851l-1.483.424z"/>
            <path fill="#FAAC18" d="M26.42 33.079s1.099 2.596 2.015 2.087c.916-.526-.633-2.783-.633-2.783l-1.383.696z"/>
            <path fill="#D89614" d="M17.912 33.067l.034.017s-.084.203-.234.492c-.016.05-.033.119-.05.17.533.203 1.066.356 1.55.475.133-.408.2-.73.2-.73l-1.5-.424z"/>
            <path fill="#D89614" d="M18.064 33.062l-1.349-.68s-.183.272-.4.663c.483.288.983.509 1.466.696.033-.051.05-.102.083-.153.1-.306.2-.51.2-.526zM26.538 33.084l.033-.017-1.499.424s.067.305.2.696c.483-.119 1-.289 1.55-.492a.836.836 0 0 0-.05-.12c-.15-.27-.234-.491-.234-.491z"/>
            <path fill="#D89614" d="M26.42 33.062c0 .017.1.22.2.509.016.034.033.085.066.119a11.46 11.46 0 0 0 1.466-.696c-.2-.357-.367-.611-.367-.611l-1.366.679z"/>
        </g>
        <path fill="#465D8F" d="M22.072 8.118c.004.185-.203.338-.461.343-.259.004-.47-.142-.474-.326l-.006-.334c-.003-.185.204-.338.462-.343.258-.004.47.142.474.326l.005.334"/>
        <path fill="#122738" d="M15.738 13.6s-.936-4.546 4.876-5.526c0 0 7.806-1.181 8.005 4.952 0 0-3.547-1.433-12.88.573"/>
        <path fill="#465D8F" d="M15.738 13.6s6.683-6.403 12.426-4.949c0 0 4.02 1.289.455 4.375 0 0-3.803-.928-12.88.573M17.217 16.465c-1.252.572-2.753 1.845-3.663 3.676-.91 1.83-1.228 4.221-1.531 6.073-.303 1.852-.591 3.165.067 3.826.657.662 2.26.67 5.023.674 2.762.005 6.682.005 9.386-.046 2.704-.052 4.191-.154 5.253-.243 1.061-.089 1.697-.165 1.75-1.655.055-1.49-.472-4.394-.838-6.672-.365-2.277-.57-3.928-1.16-4.91-.59-.983-1.568-1.299-3.47-1.36-1.903-.062-4.731.13-6.647.16-1.915.033-2.918-.095-4.17.477"/>
        <g transform="translate(5.646 10.966)">
            <g fill="#F8812C">
                <path d="M26.658 7.072s-2.3 8.79 2.285 12.039c0 0 5.21-5.698-2.285-12.04zM4.197 19.11s-5.21-5.697 2.286-12.038c0 0 2.3 8.79-2.286 12.039"/>
            </g>
            <path fill="#F9B93B" d="M23.606 2.218c-2.64-.948-4.9-1.247-6.743-1.222-1.843-.025-4.104.274-6.744 1.222 0 0-2.213-2.397-2.734-2.192-.52.204-3.167 14.246 1.78 20.035 2.02 2.366 4.772 3.113 7.698 3.09 2.845.023 5.677-.724 7.698-3.09 4.947-5.79 2.3-19.83 1.78-20.035-.522-.205-2.735 2.192-2.735 2.192z"/>
            <path fill="#FFF0BF" d="M21.663 3.2c-2.338 1.21-6.536 1.657-9.6 0-2.396-1.294-4.936 2.201-4.936 4.915s2.21 4.915 4.936 4.915a4.932 4.932 0 0 0 4.8-3.77 4.932 4.932 0 0 0 4.8 3.77c2.726 0 4.935-2.2 4.935-4.915 0-2.714-2.517-6.166-4.935-4.914"/>
            <path fill="#FFF" d="M18.31 7.996a3.594 3.594 0 0 0 3.602 3.586 3.594 3.594 0 0 0 3.602-3.586 3.594 3.594 0 0 0-3.602-3.586 3.594 3.594 0 0 0-3.601 3.586"/>
            <path fill="#724B3F" d="M19.178 8.32a2.273 2.273 0 0 0 2.278 2.269 2.273 2.273 0 0 0 2.279-2.268 2.273 2.273 0 0 0-2.279-2.269 2.273 2.273 0 0 0-2.278 2.269"/>
            <path fill="#FFF" d="M21.651 7.219a.65.65 0 0 0 .651.648c.36 0 .651-.29.651-.648a.65.65 0 0 0-.65-.648.65.65 0 0 0-.652.648M15.415 7.996a3.594 3.594 0 0 1-3.602 3.586 3.594 3.594 0 0 1-3.6-3.586 3.594 3.594 0 0 1 3.6-3.586 3.594 3.594 0 0 1 3.602 3.586"/>
            <path fill="#724B3F" d="M14.547 8.32a2.273 2.273 0 0 1-2.278 2.269A2.273 2.273 0 0 1 9.99 8.32a2.273 2.273 0 0 1 2.278-2.269 2.273 2.273 0 0 1 2.278 2.269"/>
            <path fill="#FFF" d="M12.074 7.219a.65.65 0 0 1-.651.648.65.65 0 0 1-.651-.648.65.65 0 0 1 .651-.648c.36 0 .65.29.65.648"/>
            <path fill="#FFA300" d="M15.57 9.542l1.293 1.779v-3z"/>
            <path fill="#FF890D" d="M16.863 8.32v3l1.293-1.778z"/>
            <path fill="#C8E8ED" d="M23.235 21.354a6.22 6.22 0 0 0 .223-1.65c0-3.53-2.953-6.393-6.595-6.393-3.643 0-6.595 2.863-6.595 6.394 0 .573.079 1.128.225 1.656 1.827 1.384 4.043 1.853 6.37 1.835 2.267.018 4.525-.453 6.372-1.842"/>
            <mask id="c" fill="#fff">
                <use xlink:href="#b"/>
            </mask>
            <use fill="#FFF0BF" xlink:href="#b"/>
            <g mask="url(#c)">
                <path fill="#00A9A7" d="M16.558 14.493s-1.311 4.478-1.483 4.855c-.172.377 1.281 2.125 1.61 2.223.329.098 1.558-1.286 1.674-1.471.117-.185-1.05-5.655-1.05-5.655l-.75.048"/>
                <path fill="#465D8F" d="M15.428 18.275c-.112.359-.207.662-.274.858l2.319 1.932c.246-.23.492-.495.665-.692l-2.71-2.098M15.955 16.53l-.229.765 2.548 2.02a49.577 49.577 0 0 0-.204-1.128l-2.115-1.656M16.826 13.443c-.14-.026-.328-.068-.494-.006-.166.062-.312.228-.384.388-.073.16-.073.315-.034.584.039.269.116.652.254.876.137.224.334.289.564.3.23.011.493-.032.693-.149a.901.901 0 0 0 .404-.544 1.035 1.035 0 0 0-.056-.754c-.124-.24-.37-.445-.541-.553-.171-.107-.265-.117-.406-.142"/>
                <path fill="#FFF" d="M15.335 13.179a29.5 29.5 0 0 0-1.4.115c-.338.044-.41.09-.324.324.087.235.334.658.664 1.01.331.35.746.629 1.047.743.3.113.486.063.74-.052.255-.115.578-.293.727-.617.15-.325.126-.796.036-1.087-.09-.29-.248-.4-.484-.445-.235-.044-.548-.023-1.006.009"/>
                <path fill="#FFF" d="M18.198 12.983c.458-.031 1.062-.072 1.402-.075.341-.003.42.033.366.277-.054.244-.24.697-.52 1.09-.279.392-.651.724-.976.893-.325.17-.603.175-.87.096a1.039 1.039 0 0 1-.676-.559c-.15-.317-.192-.787-.142-1.087.05-.3.19-.43.418-.506.227-.076.54-.098.998-.129"/>
            </g>
        </g>
        <path fill="#7F3F95" d="M14.142 29.15"/>
        <g transform="translate(11.742 29.12)">
            <mask id="e" fill="#fff">
                <use xlink:href="#d"/>
            </mask>
            <path fill="#7F3F95" d="M2.29.092C1.201.807.02 7.198.02 7.198S1.2.808 2.29.092" mask="url(#e)"/>
        </g>
        <g fill="#41A5A4">
            <path d="M12.48 19.452c.17.425-.063 2.441-.07 3.403-.004.51.52 4.147.43 4.342-.07.152-.414.341-.57.183-.595-.607-.954-3.013-.92-4.958.034-1.944.28-2.633.297-3.027.016-.395.116-.53.19-.53.162.006.475.163.644.587zM32.728 19.66c-.169.424.064 2.44.071 3.403.004.509-.52 4.146-.43 4.341.07.152.413.341.569.183.596-.607.955-3.013.92-4.958-.034-1.944-.28-2.632-.296-3.027-.016-.395-.116-.53-.19-.53-.163.007-.476.163-.644.588z"/>
        </g>
    </g>
</svg>
