<svg xmlns="http://www.w3.org/2000/svg" xmlns:xlink="http://www.w3.org/1999/xlink" width="29" height="29" viewBox="0 0 29 29">
    <defs>
        <path id="a" d="M11.336.045H0v15.382h11.336V.045z"/>
        <path id="b" d="M23.235 21.403a6.248 6.248 0 0 0 .223-1.653c0-3.54-2.953-6.409-6.595-6.409-3.643 0-6.595 2.87-6.595 6.41 0 .574.079 1.13.225 1.66 1.827 1.386 4.043 1.857 6.37 1.838 2.267.019 4.525-.454 6.372-1.846"/>
        <path id="d" d="M.02 3.847c.756.51 1.551.966 2.379 1.366V.03H.019v3.817z"/>
        <path id="f" d="M.084 4.536h11.394v-4.5H.084z"/>
    </defs>
    <g fill="none" fill-rule="evenodd">
        <g fill-rule="nonzero">
            <path fill="#FAAC18" d="M11.677 26.483s-.6 2.773-1.599 2.433c-1-.34.117-2.858.117-2.858l1.482.425zM9.947 26.07s-1.1 2.602-2.016 2.092c-.916-.527.633-2.79.633-2.79l1.383.698zM17.072 26.483s.6 2.773 1.6 2.433c.999-.34-.117-2.858-.117-2.858l-1.483.425z"/>
            <path fill="#FAAC18" d="M18.42 26.07s1.099 2.602 2.015 2.092c.916-.527-.633-2.79-.633-2.79l-1.383.698z"/>
            <path fill="#D89614" d="M9.912 26.058l.034.016s-.084.197-.234.475c-.016.05-.033.115-.05.164.533.197 1.066.344 1.55.459.133-.393.2-.705.2-.705l-1.5-.41z"/>
            <path fill="#D89614" d="M10.064 26.053l-1.349-.68s-.183.271-.4.663c.483.289.983.51 1.466.697.033-.051.05-.102.083-.153.1-.306.2-.51.2-.527zM18.538 26.074l.033-.016-1.499.41s.067.294.2.671c.483-.115 1-.278 1.55-.475a.792.792 0 0 0-.05-.115 4.008 4.008 0 0 1-.234-.475z"/>
            <path fill="#D89614" d="M18.42 26.035c0 .017.1.216.2.498.016.033.033.083.066.116.483-.183.983-.415 1.466-.68-.2-.348-.367-.597-.367-.597l-1.366.663z"/>
        </g>
        <path fill="#465D8F" d="M14.045 1.028c.003.178-.198.326-.449.33-.25.005-.456-.136-.46-.314L13.131.72c-.003-.178.198-.326.449-.33.25-.005.456.136.46.314l.005.323"/>
        <path fill="#122738" d="M7.739 6.545s-.937-4.555 4.875-5.538c0 0 7.806-1.183 8.005 4.964 0 0-3.547-1.437-12.88.574"/>
        <path fill="#465D8F" d="M7.739 6.545S14.42.129 20.164 1.586c0 0 4.02 1.292.455 4.385 0 0-3.803-.93-12.88.574M9.217 9.418c-1.252.573-2.753 1.848-3.663 3.684-.91 1.835-1.228 4.23-1.531 6.087-.303 1.856-.591 3.173.067 3.835.657.663 2.26.672 5.023.676 2.762.004 6.682.004 9.386-.047 2.704-.051 4.191-.154 5.253-.243 1.061-.09 1.697-.165 1.75-1.658.055-1.494-.472-4.405-.838-6.688-.365-2.283-.57-3.937-1.16-4.922-.59-.985-1.568-1.301-3.47-1.363-1.903-.062-4.731.13-6.647.161-1.915.032-2.918-.096-4.17.478"/>
        <g transform="translate(-2.354 3.906)">
            <g fill="#F8812C">
                <path d="M26.652 7.09s-2.293 8.804 2.297 12.063c0 0 5.207-5.703-2.297-12.064zM4.191 19.153S-1.015 13.45 6.49 7.09c0 0 2.293 8.805-2.298 12.064"/>
            </g>
            <path fill="#F9B93B" d="M23.606 2.223c-2.64-.95-4.9-1.25-6.743-1.225-1.843-.024-4.104.275-6.744 1.225 0 0-2.213-2.402-2.734-2.197-.52.205-3.167 14.279 1.78 20.082 2.02 2.371 4.772 3.12 7.698 3.096 2.845.024 5.677-.725 7.698-3.096 4.947-5.803 2.3-19.877 1.78-20.082-.522-.205-2.735 2.197-2.735 2.197z"/>
            <path fill="#FFF0BF" d="M21.663 3.208c-2.338 1.213-6.536 1.66-9.6 0C9.667 1.91 7.127 5.413 7.127 8.134a4.93 4.93 0 0 0 4.936 4.926 4.935 4.935 0 0 0 4.8-3.779 4.935 4.935 0 0 0 4.8 3.779 4.93 4.93 0 0 0 4.935-4.926c0-2.72-2.517-6.18-4.935-4.926"/>
            <path fill="#FFF" d="M18.31 8.015a3.598 3.598 0 0 0 3.602 3.594 3.598 3.598 0 0 0 3.602-3.594 3.598 3.598 0 0 0-3.602-3.594 3.598 3.598 0 0 0-3.601 3.594"/>
            <path fill="#724B3F" d="M19.178 8.34a2.276 2.276 0 0 0 2.278 2.273 2.276 2.276 0 0 0 2.279-2.273 2.276 2.276 0 0 0-2.279-2.274 2.276 2.276 0 0 0-2.278 2.274"/>
            <path fill="#FFF" d="M21.651 7.214c0 .347.287.628.64.628.354 0 .64-.281.64-.628a.634.634 0 0 0-.64-.628.634.634 0 0 0-.64.628M15.415 8.015a3.598 3.598 0 0 1-3.602 3.594 3.598 3.598 0 0 1-3.6-3.594 3.598 3.598 0 0 1 3.6-3.594c1.99 0 3.602 1.609 3.602 3.594"/>
            <path fill="#724B3F" d="M14.547 8.34a2.276 2.276 0 0 1-2.278 2.273A2.276 2.276 0 0 1 9.99 8.34a2.276 2.276 0 0 1 2.278-2.274 2.276 2.276 0 0 1 2.278 2.274"/>
            <path fill="#FFF" d="M12.053 7.214a.634.634 0 0 1-.64.628.634.634 0 0 1-.641-.628c0-.347.287-.628.64-.628.354 0 .64.281.64.628"/>
            <path fill="#FFA300" d="M15.57 9.564l1.263 1.783V8.34z"/>
            <path fill="#FF890D" d="M16.863 8.34v3.007l1.263-1.783z"/>
            <path fill="#C8E8ED" d="M23.235 21.403a6.248 6.248 0 0 0 .223-1.653c0-3.54-2.953-6.409-6.595-6.409-3.643 0-6.595 2.87-6.595 6.41 0 .574.079 1.13.225 1.66 1.827 1.386 4.043 1.857 6.37 1.838 2.267.019 4.525-.454 6.372-1.846"/>
            <mask id="c" fill="#fff">
                <use xlink:href="#b"/>
            </mask>
            <use fill="#FFF0BF" xlink:href="#b"/>
            <g mask="url(#c)">
                <path fill="#00A9A7" d="M16.558 14.527s-1.311 4.487-1.483 4.865c-.172.378 1.281 2.13 1.61 2.228.329.099 1.558-1.289 1.674-1.474.117-.185-1.05-5.668-1.05-5.668l-.75.049"/>
                <path fill="#465D8F" d="M15.428 18.317c-.112.36-.207.663-.274.86l2.319 1.937c.246-.232.492-.497.665-.694l-2.71-2.103M15.955 16.569l-.229.766 2.548 2.025c-.052-.318-.124-.709-.204-1.13l-2.115-1.661M16.826 13.474c-.14-.026-.328-.068-.494-.006-.166.062-.312.229-.384.39-.073.16-.073.314-.034.584.039.27.116.654.254.878.137.225.334.29.564.301.23.011.493-.032.693-.15.2-.117.336-.309.404-.544a1.04 1.04 0 0 0-.056-.756c-.124-.242-.37-.447-.541-.554-.171-.108-.265-.118-.406-.143"/>
                <path fill="#FFF" d="M15.335 13.209c-.459.031-1.062.072-1.4.116-.338.044-.41.09-.324.325.087.235.334.66.664 1.01.331.353.746.632 1.047.746.3.114.486.063.74-.052.255-.115.578-.293.727-.618.15-.326.126-.798.036-1.09-.09-.29-.248-.401-.484-.446-.235-.044-.548-.022-1.006.009"/>
                <path fill="#FFF" d="M18.198 13.013c.458-.031 1.062-.073 1.402-.075.341-.003.42.032.366.277-.054.245-.24.699-.52 1.092-.279.394-.651.727-.976.896-.325.17-.603.176-.87.097a1.04 1.04 0 0 1-.676-.56c-.15-.318-.192-.79-.142-1.09.05-.302.19-.432.418-.508.227-.076.54-.098.998-.129"/>
            </g>
        </g>
        <path fill="#7F3F95" d="M6.142 22.159"/>
        <g transform="translate(3.742 22.102)">
            <mask id="e" fill="#fff">
                <use xlink:href="#d"/>
            </mask>
            <path fill="#7F3F95" d="M2.29.092C1.201.81.02 7.215.02 7.215S1.2.809 2.29.092" mask="url(#e)"/>
        </g>
        <g fill="#41A5A4">
            <path d="M4.483 12.412c.168.426-.066 2.447-.073 3.41-.004.51.518 4.156.428 4.352-.07.152-.414.342-.57.183-.595-.608-.953-3.019-.918-4.968.035-1.949.282-2.639.298-3.034.017-.395.117-.531.191-.531.162.006.475.163.644.588zM24.726 12.62c-.168.425.066 2.446.073 3.41.004.51-.518 4.156-.428 4.351.07.152.413.342.569.184.596-.608.954-3.02.918-4.968-.035-1.95-.28-2.639-.298-3.034-.016-.396-.116-.532-.19-.532-.163.007-.476.163-.644.589z"/>
        </g>
    </g>
</svg>
