<svg xmlns="http://www.w3.org/2000/svg" xmlns:xlink="http://www.w3.org/1999/xlink" width="25" height="25" viewBox="0 0 25 25">
    <defs>
        <path id="a" d="M9.771.038H0V13h9.771V.038z"/>
        <path id="b" d="M20.028 18.035c.124-.445.191-.911.191-1.393 0-2.982-2.545-5.4-5.684-5.4-3.14 0-5.685 2.418-5.685 5.4 0 .484.068.953.194 1.4 1.575 1.168 3.485 1.564 5.491 1.549 1.954.015 3.9-.383 5.493-1.556"/>
        <path id="d" d="M.017 3.242a16.76 16.76 0 0 0 2.05 1.15V.026H.018v3.217z"/>
        <path id="f" d="M.072 3.822h9.821V.03H.073z"/>
    </defs>
    <g fill="none" fill-rule="evenodd">
        <g fill-rule="nonzero">
            <path fill="#FAAC18" d="M10.62 22.127s-.516 2.337-1.377 2.05c-.862-.287.1-2.408.1-2.408l1.278.358zM9.13 21.779s-.948 2.193-1.738 1.763c-.79-.444.546-2.35.546-2.35l1.191.587zM15.271 22.127s.517 2.337 1.378 2.05c.862-.287-.1-2.408-.1-2.408l-1.278.358z"/>
            <path fill="#FAAC18" d="M16.432 21.779s.948 2.193 1.738 1.763c.79-.444-.546-2.35-.546-2.35l-1.192.587z"/>
            <path fill="#D89614" d="M9.1 21.769l.028.014s-.072.172-.2.416c-.015.043-.03.1-.044.143.46.172.919.301 1.335.402.115-.344.173-.617.173-.617l-1.293-.358z"/>
            <path fill="#D89614" d="M9.23 21.765l-1.163-.574s-.157.23-.344.56c.416.243.847.43 1.263.587.03-.043.043-.086.072-.129.086-.258.172-.43.172-.444zM16.534 21.783l.03-.014-1.293.358s.057.258.172.588c.417-.1.862-.244 1.336-.416-.015-.043-.03-.071-.043-.1-.13-.23-.202-.416-.202-.416z"/>
            <path fill="#D89614" d="M16.432 21.765c0 .014.086.186.173.43.014.028.028.071.057.1a9.97 9.97 0 0 0 1.263-.588c-.172-.3-.315-.516-.315-.516l-1.178.574z"/>
        </g>
        <path fill="#465D8F" d="M12.686.699c.003.155-.175.285-.398.289-.223.004-.405-.12-.408-.275L11.875.43c-.003-.155.175-.285.398-.289.223-.004.406.12.408.275l.005.283"/>
        <path fill="#122738" d="M7.225 5.33S6.419 1.49 11.429.66c0 0 6.729-1 6.899 4.18 0 0-3.057-1.209-11.103.488"/>
        <path fill="#465D8F" d="M7.225 5.33s5.762-5.41 10.711-4.183c0 0 3.465 1.087.392 3.694 0 0-3.278-.782-11.103.488M8.5 7.747c-1.08.484-2.373 1.558-3.157 3.105-.784 1.546-1.059 3.565-1.32 5.13-.261 1.563-.51 2.673.058 3.23.567.56 1.949.567 4.33.57 2.38.004 5.76.004 8.09-.04 2.33-.043 3.613-.13 4.527-.204.915-.075 1.463-.14 1.51-1.398.046-1.258-.408-3.711-.723-5.635-.315-1.923-.491-3.317-1-4.147-.509-.83-1.351-1.097-2.991-1.149-1.64-.052-4.078.11-5.73.136-1.65.027-2.515-.08-3.594.402"/>
        <g transform="translate(-1.474 3.103)">
            <g fill="#F8812C">
                <path d="M23.021 5.964s-2.033 7.466 1.883 10.19c0 0 4.512-4.865-1.883-10.19zM3.661 16.154S-.85 11.289 5.544 5.964c0 0 2.034 7.466-1.883 10.19"/>
            </g>
            <path fill="#F9B93B" d="M20.348 1.873c-2.276-.8-4.225-1.053-5.813-1.032-1.588-.02-3.537.231-5.813 1.032 0 0-1.907-2.024-2.356-1.851-.45.173-2.73 12.032 1.533 16.921 1.743 1.999 4.114 2.63 6.636 2.61 2.453.02 4.893-.611 6.636-2.61C25.434 12.053 23.153.195 22.704.022c-.449-.173-2.356 1.851-2.356 1.851z"/>
            <path fill="#FFF0BF" d="M18.672 2.703c-2.014 1.022-5.633 1.4-8.274 0C8.333 1.61 6.143 4.562 6.143 6.854s1.905 4.15 4.255 4.15c2.008 0 3.69-1.357 4.137-3.183.447 1.826 2.129 3.184 4.137 3.184 2.35 0 4.255-1.859 4.255-4.15 0-2.293-2.17-5.209-4.255-4.152"/>
            <path fill="#FFF" d="M15.783 6.754c0 1.672 1.39 3.028 3.104 3.028 1.715 0 3.105-1.356 3.105-3.028 0-1.673-1.39-3.03-3.105-3.03-1.714 0-3.104 1.357-3.104 3.03"/>
            <path fill="#724B3F" d="M16.53 7.027c0 1.059.88 1.916 1.964 1.916 1.085 0 1.964-.857 1.964-1.916 0-1.058-.88-1.915-1.964-1.915s-1.963.857-1.963 1.915"/>
            <path fill="#FFF" d="M18.663 6.097c0 .302.25.547.56.547.31 0 .562-.245.562-.547a.554.554 0 0 0-.561-.547.554.554 0 0 0-.561.547M13.287 6.754c0 1.672-1.39 3.028-3.104 3.028-1.715 0-3.105-1.356-3.105-3.028 0-1.673 1.39-3.03 3.105-3.03 1.714 0 3.104 1.357 3.104 3.03"/>
            <path fill="#724B3F" d="M12.539 7.027c0 1.059-.88 1.916-1.964 1.916s-1.963-.857-1.963-1.916c0-1.058.879-1.915 1.963-1.915 1.085 0 1.964.857 1.964 1.915"/>
            <path fill="#FFF" d="M10.407 6.097a.554.554 0 0 1-.56.547.554.554 0 0 1-.562-.547c0-.302.251-.547.561-.547.31 0 .561.245.561.547"/>
            <path fill="#FFA300" d="M13.42 8.06l1.115 1.501V7.027z"/>
            <path fill="#FF890D" d="M14.535 7.027v2.534L15.65 8.06z"/>
            <path fill="#C8E8ED" d="M20.028 18.035c.124-.445.191-.911.191-1.393 0-2.982-2.545-5.4-5.684-5.4-3.14 0-5.685 2.418-5.685 5.4 0 .484.068.953.194 1.4 1.575 1.168 3.485 1.564 5.491 1.549 1.954.015 3.9-.383 5.493-1.556"/>
            <mask id="c" fill="#fff">
                <use xlink:href="#b"/>
            </mask>
            <use fill="#FFF0BF" xlink:href="#b"/>
            <g mask="url(#c)">
                <path fill="#00A9A7" d="M14.272 12.24s-1.13 3.782-1.278 4.1c-.148.32 1.104 1.795 1.388 1.878.283.083 1.343-1.086 1.443-1.242.1-.156-.906-4.776-.906-4.776l-.647.04"/>
                <path fill="#465D8F" d="M13.298 15.435c-.096.303-.178.558-.236.724l1.999 1.632a8.94 8.94 0 0 0 .573-.584l-2.336-1.772M13.753 13.961l-.198.646 2.197 1.707a41.108 41.108 0 0 0-.177-.954l-1.822-1.399M14.503 11.353c-.121-.021-.283-.057-.426-.004a.645.645 0 0 0-.33.327c-.063.136-.063.266-.03.493.034.228.1.551.219.74.118.19.288.244.486.254.198.01.425-.027.598-.126a.763.763 0 0 0 .347-.46.858.858 0 0 0-.048-.636c-.106-.204-.32-.377-.466-.467-.147-.09-.228-.099-.35-.12"/>
                <path fill="#FFF" d="M13.218 11.13a25.94 25.94 0 0 0-1.207.098c-.29.037-.354.075-.279.274.075.198.288.555.573.852.285.296.643.531.902.628.259.096.419.053.638-.044.22-.097.498-.247.627-.521s.108-.673.03-.918c-.078-.246-.214-.338-.416-.376-.203-.037-.473-.02-.868.007"/>
                <path fill="#FFF" d="M15.686 10.965c.395-.026.915-.061 1.209-.063.293-.003.361.027.315.234-.046.206-.207.588-.448.92-.24.331-.562.612-.842.755a.968.968 0 0 1-.75.081.892.892 0 0 1-.582-.472 1.726 1.726 0 0 1-.123-.919c.043-.253.165-.363.36-.427.196-.064.466-.082.86-.109"/>
            </g>
        </g>
        <path fill="#7F3F95" d="M5.85 18.461"/>
        <g transform="translate(3.78 18.436)">
            <mask id="e" fill="#fff">
                <use xlink:href="#d"/>
            </mask>
            <path fill="#7F3F95" d="M1.974.078C1.035.682.017 6.079.017 6.079S1.035.682 1.974.078" mask="url(#e)"/>
        </g>
        <g fill="#41A5A4">
            <path d="M4.405 10.269c.146.36-.047 2.063-.05 2.876-.001.43.462 3.507.386 3.672-.06.128-.355.287-.49.152-.515-.515-.832-2.55-.81-4.194.023-1.644.232-2.224.245-2.558.013-.333.098-.448.162-.447.14.006.41.139.557.499zM21.883 10.444c-.147.36.047 2.063.05 2.876 0 .43-.463 3.507-.386 3.672.059.127.355.287.489.152.516-.515.833-2.55.81-4.194-.022-1.644-.231-2.225-.244-2.558-.013-.334-.098-.448-.162-.447-.14.006-.41.139-.557.499z"/>
        </g>
    </g>
</svg>
