<svg xmlns="http://www.w3.org/2000/svg" xmlns:xlink="http://www.w3.org/1999/xlink" width="44" height="44" viewBox="0 0 44 44">
    <defs>
        <path id="a" d="M20.939 19.81c0-3.212-3.062-5.817-6.84-5.817-3.776 0-6.839 2.605-6.839 5.818 0 .521.082 1.026.234 1.507 1.913 1.416 3.37 2.179 6.606 2.179 3.235 0 4.693-.922 6.608-2.186.15-.479.23-.981.23-1.5z"/>
    </defs>
    <g fill="none" fill-rule="evenodd">
        <circle cx="22" cy="22" r="22" fill="#FFF"/>
        <circle cx="22" cy="22" r="19" fill="#FFF" stroke="#A3B3BA" stroke-width="2"/>
        <g transform="translate(9 9)">
            <path fill="#FAAC18" fill-rule="nonzero" d="M11.298 22.706s-.622 2.847-1.659 2.498c-1.036-.35.121-2.935.121-2.935l1.538.437zM9.503 22.281s-1.14 2.673-2.09 2.15c-.95-.542.656-2.866.656-2.866l1.434.716zM16.892 22.706s.622 2.847 1.659 2.498c1.036-.35-.121-2.935-.121-2.935l-1.538.437z"/>
            <path fill="#FAAC18" fill-rule="nonzero" d="M18.29 22.281s1.14 2.673 2.09 2.15c.95-.542-.657-2.866-.657-2.866l-1.434.716z"/>
            <path fill="#D89614" fill-rule="nonzero" d="M9.467 22.269l.035.017s-.087.21-.242.507c-.017.053-.035.122-.052.175.553.21 1.106.367 1.607.489.138-.42.207-.751.207-.751l-1.555-.437z"/>
            <path fill="#D89614" fill-rule="nonzero" d="M9.625 22.264l-1.4-.699s-.19.28-.414.681a9.94 9.94 0 0 0 1.52.717c.035-.053.052-.105.086-.158.104-.314.208-.524.208-.541zM18.412 22.286l.035-.017-1.555.437s.07.314.208.716a15.114 15.114 0 0 0 1.606-.507c-.017-.052-.034-.087-.052-.122-.155-.28-.242-.507-.242-.507z"/>
            <path fill="#D89614" fill-rule="nonzero" d="M18.29 22.264c0 .017.103.227.207.524.017.035.034.087.069.122.5-.192 1.019-.436 1.52-.716-.207-.367-.38-.629-.38-.629l-1.417.699z"/>
            <path fill="#F9B93B" d="M23.754 18.123c-.43 1.057-.979 2.015-1.67 2.819-2.097 2.436-5.033 3.204-7.984 3.18-3.034.024-5.888-.744-7.984-3.18-.836-.972-1.463-2.17-1.925-3.494-.452.987-1.108 1.865-2.04 2.521 0 0-4.69-5.101.908-11.06.066-4.575.933-8.481 1.212-8.59.54-.211 2.835 2.256 2.835 2.256C9.844 1.6 12.19 1.292 14.1 1.317c1.91-.025 4.255.282 6.993 1.258 0 0 2.295-2.467 2.835-2.256.293.114 1.234 4.418 1.216 9.284 4.628 5.656.298 10.366.298 10.366a5.916 5.916 0 0 1-1.688-1.846z"/>
            <path fill="#FFF0BF" d="M19.077 3.587c-2.424 1.245-6.777 1.705-9.955 0-2.485-1.333-5.119 2.265-5.119 5.059 0 2.793 2.292 5.058 5.12 5.058 2.415 0 4.44-1.655 4.977-3.88.537 2.225 2.561 3.88 4.977 3.88 2.827 0 5.119-2.265 5.119-5.058 0-2.794-2.61-6.347-5.119-5.06"/>
            <path fill="#FFF" d="M15.601 8.523c0 2.04 1.672 3.691 3.735 3.691 2.063 0 3.735-1.652 3.735-3.69 0-2.04-1.672-3.692-3.735-3.692-2.063 0-3.735 1.653-3.735 3.691"/>
            <path fill="#724B3F" d="M16.501 8.857c0-1.29 1.058-2.335 2.362-2.335 1.305 0 2.363 1.045 2.363 2.335s-1.058 2.335-2.363 2.335c-1.304 0-2.362-1.045-2.362-2.335zm2.565-1.134c0 .368.302.667.675.667a.671.671 0 0 0 .675-.667.671.671 0 0 0-.675-.667.671.671 0 0 0-.675.667z"/>
            <path fill="#FFF" d="M12.598 8.523c0 2.04-1.672 3.691-3.735 3.691-2.062 0-3.734-1.652-3.734-3.69 0-2.04 1.672-3.692 3.734-3.692 2.063 0 3.735 1.653 3.735 3.691"/>
            <path fill="#724B3F" d="M11.698 8.857c0 1.29-1.057 2.335-2.362 2.335-1.305 0-2.363-1.045-2.363-2.335s1.058-2.335 2.363-2.335 2.362 1.045 2.362 2.335zM9.133 7.723a.671.671 0 0 0-.675-.667.671.671 0 0 0-.675.667c0 .368.303.667.675.667a.671.671 0 0 0 .675-.667z"/>
            <path fill="#F9B93B" d="M12.758 10.114L14.1 8.857v3.088l-1.342-1.83zM14.1 8.857l1.34 1.257-1.34 1.83V8.858z"/>
            <use fill="#FFF0BF" xlink:href="#a"/>
        </g>
    </g>
</svg>
