<svg xmlns="http://www.w3.org/2000/svg" xmlns:xlink="http://www.w3.org/1999/xlink" width="43" height="43" viewBox="0 0 43 43">
    <defs>
        <path id="a" d="M13.028.051H0v17.417h13.028V.051z"/>
        <path id="b" d="M26.703 24.235a6.977 6.977 0 0 0 .256-1.872c0-4.008-3.393-7.257-7.579-7.257s-7.58 3.25-7.58 7.257c0 .65.091 1.28.259 1.88 2.1 1.57 4.647 2.103 7.321 2.082 2.606.021 5.2-.514 7.323-2.09"/>
        <path id="d" d="M.022 4.356a22.3 22.3 0 0 0 2.735 1.547V.033H.022v4.323z"/>
        <path id="f" d="M.096 5.136h13.095V.041H.096z"/>
    </defs>
    <g fill="none" fill-rule="evenodd">
        <path fill="#C4D4DB" d="M0 21.394C0 9.597 9.5 0 21.177 0s21.177 9.597 21.177 21.394c0 11.797-9.5 21.394-21.177 21.394S0 33.191 0 21.394z"/>
        <g fill-rule="nonzero">
            <path fill="#FAAC18" d="M18.161 35.108s-.689 3.14-1.838 2.755c-1.148-.385.134-3.236.134-3.236l1.704.481zM16.172 34.64s-1.263 2.948-2.316 2.37c-1.053-.597.727-3.16.727-3.16l1.59.79zM24.361 35.108s.69 3.14 1.838 2.755c1.149-.385-.134-3.236-.134-3.236l-1.704.481z"/>
            <path fill="#FAAC18" d="M25.91 34.64s1.263 2.948 2.316 2.37c1.053-.597-.727-3.16-.727-3.16l-1.59.79z"/>
            <path fill="#D89614" d="M16.133 34.627l.038.02s-.096.23-.268.558c-.02.058-.038.135-.058.192.613.232 1.226.405 1.78.54.154-.463.23-.829.23-.829l-1.722-.481z"/>
            <path fill="#D89614" d="M16.307 34.621l-1.55-.77s-.211.308-.46.751c.555.327 1.13.578 1.685.79.038-.058.057-.116.096-.174.114-.346.23-.577.23-.597zM26.046 34.646l.038-.02-1.723.482s.077.347.23.79a16.812 16.812 0 0 0 1.78-.558c-.019-.058-.038-.097-.057-.135-.172-.308-.268-.559-.268-.559z"/>
            <path fill="#D89614" d="M25.91 34.621c0 .02.115.25.23.578.019.039.038.096.076.135.555-.212 1.13-.482 1.685-.79-.23-.404-.422-.693-.422-.693l-1.57.77z"/>
        </g>
        <path fill="#465D8F" d="M20.914 6.314c.004.209-.234.383-.53.388-.297.005-.54-.16-.545-.37l-.006-.379c-.004-.21.234-.383.53-.389.298-.005.541.16.545.37l.006.38"/>
        <path fill="#122738" d="M13.634 12.535s-1.076-5.157 5.605-6.272c0 0 8.971-1.342 9.198 5.619 0 0-4.076-1.626-14.803.653"/>
        <path fill="#465D8F" d="M13.634 12.535s7.68-7.267 14.28-5.618c0 0 4.621 1.461.523 4.965 0 0-4.37-1.053-14.803.653M15.334 15.786c-1.44.649-3.165 2.093-4.21 4.171-1.046 2.078-1.411 4.791-1.76 6.893-.348 2.101-.68 3.592.077 4.342.756.75 2.598.76 5.773.765 3.174.005 7.68.005 10.787-.053 3.107-.058 4.817-.174 6.037-.275 1.22-.1 1.95-.187 2.012-1.878.062-1.69-.543-4.987-.964-7.572-.42-2.585-.654-4.458-1.333-5.574-.678-1.115-1.801-1.472-3.988-1.543-2.187-.07-5.437.147-7.639.183-2.201.036-3.353-.109-4.792.54"/>
        <g transform="translate(2.035 9.545)">
            <g fill="#F8812C">
                <path d="M30.673 8.018S27.987 18.03 33.228 21.7c0 0 6.005-6.51-2.555-13.682zM4.86 21.7s-6.005-6.51 2.554-13.682c0 0 2.686 10.011-2.554 13.682"/>
            </g>
            <path fill="#F9B93B" d="M27.13 2.517c-3.034-1.076-5.633-1.415-7.75-1.387-2.118-.028-4.716.31-7.75 1.387 0 0-2.544-2.72-3.142-2.488-.599.232-3.64 16.168 2.044 22.739 2.323 2.685 5.486 3.532 8.848 3.506 3.27.026 6.524-.821 8.847-3.506C33.912 16.198 30.87.26 30.272.029c-.598-.232-3.142 2.488-3.142 2.488z"/>
            <path fill="#FFF0BF" d="M24.896 3.632c-2.686 1.374-7.511 1.88-11.032 0C11.11 2.162 8.19 6.13 8.19 9.21s2.54 5.577 5.673 5.577c2.677 0 4.92-1.824 5.516-4.278.595 2.454 2.839 4.278 5.516 4.278 3.133 0 5.673-2.497 5.673-5.577s-2.893-6.998-5.673-5.578"/>
            <path fill="#FFF" d="M21.044 9.075c0 2.248 1.853 4.07 4.139 4.07 2.286 0 4.14-1.822 4.14-4.07s-1.854-4.07-4.14-4.07c-2.286 0-4.14 1.822-4.14 4.07"/>
            <path fill="#724B3F" d="M22.041 9.443c0 1.422 1.172 2.574 2.618 2.574s2.618-1.152 2.618-2.574-1.172-2.574-2.618-2.574-2.618 1.152-2.618 2.574"/>
            <path fill="#FFF" d="M24.883 8.193c0 .406.336.735.748.735.414 0 .748-.33.748-.735a.742.742 0 0 0-.748-.736.742.742 0 0 0-.748.736M17.716 9.075c0 2.248-1.853 4.07-4.14 4.07-2.285 0-4.138-1.822-4.138-4.07s1.853-4.07 4.139-4.07c2.286 0 4.139 1.822 4.139 4.07"/>
            <path fill="#724B3F" d="M16.718 9.443c0 1.422-1.172 2.574-2.618 2.574-1.445 0-2.618-1.152-2.618-2.574s1.173-2.574 2.618-2.574c1.446 0 2.618 1.152 2.618 2.574"/>
            <path fill="#FFF" d="M13.876 8.193a.742.742 0 0 1-.748.735.742.742 0 0 1-.748-.735c0-.407.335-.736.748-.736s.748.33.748.736"/>
            <path fill="#FFA300" d="M17.893 10.83l1.487 2.018V9.443z"/>
            <path fill="#FF890D" d="M19.38 9.443v3.405l1.486-2.019z"/>
            <path fill="#C8E8ED" d="M26.703 24.235a6.977 6.977 0 0 0 .256-1.872c0-4.008-3.393-7.257-7.579-7.257s-7.58 3.25-7.58 7.257c0 .65.091 1.28.259 1.88 2.1 1.57 4.647 2.103 7.321 2.082 2.606.021 5.2-.514 7.323-2.09"/>
            <mask id="c" fill="#fff">
                <use xlink:href="#b"/>
            </mask>
            <use fill="#FFF0BF" xlink:href="#b"/>
            <g mask="url(#c)">
                <path fill="#00A9A7" d="M19.03 16.449s-1.507 5.08-1.705 5.509c-.197.428 1.473 2.411 1.85 2.522.378.112 1.791-1.459 1.925-1.669.134-.21-1.208-6.418-1.208-6.418l-.862.056"/>
                <path fill="#465D8F" d="M17.73 20.74c-.127.408-.237.751-.314.974l2.665 2.193c.282-.262.566-.562.764-.786l-3.115-2.38M18.337 18.76l-.264.868 2.929 2.293c-.06-.36-.142-.803-.235-1.28l-2.43-1.88M19.337 15.256c-.161-.03-.376-.076-.567-.006-.191.07-.358.258-.441.44-.084.182-.084.357-.04.663.045.305.134.74.292.994.157.254.384.328.648.34.265.013.567-.036.797-.169.23-.133.386-.35.464-.617a1.16 1.16 0 0 0-.064-.855c-.142-.274-.426-.506-.622-.628s-.305-.133-.467-.162"/>
                <path fill="#FFF" d="M17.624 14.956c-.527.036-1.22.082-1.609.132-.388.05-.472.101-.372.367.1.266.383.747.763 1.145.38.399.858.715 1.203.844.345.13.559.072.851-.059.293-.13.664-.332.836-.7.171-.369.144-.903.04-1.233-.104-.33-.285-.455-.555-.505-.27-.05-.63-.026-1.157.01"/>
                <path fill="#FFF" d="M20.915 14.735c.526-.036 1.22-.083 1.611-.086.392-.003.482.037.42.314-.061.278-.275.791-.597 1.237-.32.446-.749.823-1.122 1.015-.374.192-.693.198-1 .109-.308-.09-.605-.276-.777-.635-.172-.36-.22-.893-.163-1.234.057-.34.22-.489.48-.575.26-.086.62-.11 1.148-.145"/>
            </g>
        </g>
        <path fill="#7F3F95" d="M11.8 30.182"/>
        <g transform="translate(9.041 30.149)">
            <mask id="e" fill="#fff">
                <use xlink:href="#d"/>
            </mask>
            <path fill="#7F3F95" d="M2.632.105C1.38.916.022 8.169.022 8.169S1.38.916 2.632.105" mask="url(#e)"/>
        </g>
        <g fill="#41A5A4">
            <path d="M9.88 19.175c.194.482-.067 2.771-.072 3.864-.003.578.609 4.71.506 4.93-.079.173-.474.387-.653.207-.686-.691-1.105-3.424-1.072-5.632.034-2.209.314-2.99.332-3.437.018-.448.132-.602.217-.602.187.008.547.187.741.67zM33.17 19.41c-.194.482.068 2.771.073 3.864.002.578-.61 4.71-.507 4.93.08.173.474.387.653.207.687-.691 1.106-3.424 1.072-5.632-.034-2.209-.314-2.99-.332-3.437-.018-.448-.132-.602-.217-.602-.186.008-.546.187-.741.67z"/>
        </g>
    </g>
</svg>
