<svg xmlns="http://www.w3.org/2000/svg" xmlns:xlink="http://www.w3.org/1999/xlink" width="217" height="154" viewBox="0 0 217 154">
    <defs>
        <path id="a" d="M.625.772h36.937v41.885H.625z"/>
    </defs>
    <g fill="none" fill-rule="evenodd">
        <g transform="translate(145.342 51.167)">
            <mask id="b" fill="#fff">
                <use xlink:href="#a"/>
            </mask>
            <path fill="#EEE2DD" d="M14.367 42.603a2.117 2.117 0 0 0 2.531-1.6 2.119 2.119 0 0 0-1.574-2.548 2.116 2.116 0 0 0-2.53 1.6 2.118 2.118 0 0 0 1.573 2.548m-4.052-7.565c1.385.32 2.838.109 4.044-.432.835 1.067 2.01 1.83 3.447 2.162 2.771.64 5.486-.59 6.881-2.89l.36.084c3.437.794 6.854-1.366 7.655-4.84.228-.985.237-1.966.018-2.89a6.477 6.477 0 0 0 4.679-4.818c.622-2.696-.584-5.433-2.792-6.872.147-.403.282-.753.377-1.168.802-3.474-1.322-6.914-4.76-7.709l-.051-.012c-.857-1.672-2.387-3.008-4.336-3.459-.976-.225-1.946-.231-2.863-.006-.737-.552-1.6-1.025-2.575-1.25a6.29 6.29 0 0 0-5.425 1.26c-3.087-.44-6.01 1.45-6.972 4.45-2.993-.144-5.797 1.938-6.503 4.998a6.498 6.498 0 0 0 .897 5.014A6.255 6.255 0 0 0 .794 19.62c-.801 3.473 1.323 6.914 4.76 7.708-.801 3.475 1.323 6.914 4.76 7.709" mask="url(#b)"/>
        </g>
        <path stroke="#A77D43" stroke-width=".846" d="M159.759 91.122c-.794-.173-1.29-.932-1.104-1.697.187-.766.985-1.242 1.78-1.07.793.175 1.288.934 1.102 1.7-.187.764-.984 1.24-1.778 1.067zm-4.122-7.279c-3.138-.685-5.078-3.656-4.344-6.662l.149-.611-.647-.142c-3.138-.686-5.077-3.657-4.345-6.662a5.305 5.305 0 0 1 1.459-2.553l.369-.36-.288-.42c-.88-1.281-1.19-2.83-.822-4.34.638-2.618 3.18-4.447 5.935-4.321l.509.024.156-.46c.884-2.608 3.56-4.23 6.365-3.852l.288.04.225-.175a5.983 5.983 0 0 1 4.948-1.087c.82.18 1.61.554 2.371 1.094l.253.178.304-.07a5.917 5.917 0 0 1 2.604.007 5.964 5.964 0 0 1 3.97 3.003l.14.26.353.077c3.138.685 5.078 3.657 4.345 6.661-.04.163-.09.323-.155.508-.047.133-.095.258-.205.543l-.183.47.444.272c2.06 1.27 3.111 3.658 2.555 5.943-.502 2.058-2.176 3.658-4.277 4.168l-.632.153.15.6c.198.788.192 1.632-.019 2.495-.733 3.005-3.853 4.87-6.99 4.185l-.834-.182-.249.388c-1.298 2.024-3.794 3.037-6.282 2.493-1.29-.281-2.362-.924-3.133-1.854l-.32-.387-.474.2c-1.16.492-2.49.64-3.693.376z"/>
        <path fill="#684821" d="M164.163 74.073c-.103.345-.282.646-.49.826-.21.181-.452.282-.688.304-.277.02-.508-.034-.695-.164-.19-.092-.293-.295-.313-.569.008-.664.091-1.283.322-1.776a6.03 6.03 0 0 1 .841-1.348 9.722 9.722 0 0 1 1.06-1.1c.376-.325.754-.69 1.053-1.02.34-.369.601-.741.826-1.156.226-.414.34-.914.34-1.46-.017-.315-.076-.592-.18-.796a1.56 1.56 0 0 0-.471-.54 3.013 3.013 0 0 0-.606-.315c-.231-.055-.463-.11-.661-.084-.156-.011-.356.053-.56.156-.203.103-.37.248-.538.393-.168.145-.295.292-.423.44a1.212 1.212 0 0 0-.223.375c-.128.147-.257.295-.418.362a1.986 1.986 0 0 1-.519.12c-.156-.01-.273-.018-.424-.107a1.397 1.397 0 0 1-.37-.299c-.11-.125-.177-.285-.284-.45-.066-.16-.091-.357-.114-.593.01-.156.064-.348.156-.537.22-.336.477-.631.81-.92.293-.254.625-.504.99-.675a5.902 5.902 0 0 1 2.275-.547 4.64 4.64 0 0 1 1.437.217c.5.151.954.378 1.402.683.41.302.773.717 1.056 1.167.28.488.397 1.043.428 1.71.023.782-.066 1.48-.263 2.053-.198.572-.43 1.064-.732 1.473-.305.41-.644.776-1.02 1.102a25.11 25.11 0 0 1-1.127.939c-.375.325-.748.612-1.048.943a7.067 7.067 0 0 0-.83 1.193m.43 4.446l-.015.233c-.009.117-.02.272-.07.426-.05.152-.102.344-.193.494-.091.19-.218.337-.347.484a2.275 2.275 0 0 1-.616.387c-.242.101-.521.16-.872.136-.277.02-.547-.038-.779-.093a1.356 1.356 0 0 1-.566-.313 1.56 1.56 0 0 1-.392-.574c-.1-.241-.12-.516-.137-.83-.02-.275.04-.545.097-.814.098-.266.193-.494.363-.678.17-.184.378-.365.624-.505.245-.139.563-.195.953-.168.627.004 1.089.153 1.42.45.368.337.533.779.53 1.365"/>
        <path stroke="#684821" stroke-width=".691" d="M164.163 74.073c-.103.345-.282.646-.49.826-.21.181-.452.282-.688.304-.277.02-.508-.034-.695-.164-.19-.092-.293-.295-.313-.569.008-.664.091-1.283.322-1.776a6.03 6.03 0 0 1 .841-1.348 9.722 9.722 0 0 1 1.06-1.1c.376-.325.754-.69 1.053-1.02.34-.369.601-.741.826-1.156.226-.414.34-.914.34-1.46-.017-.315-.076-.592-.18-.796a1.56 1.56 0 0 0-.471-.54 3.013 3.013 0 0 0-.606-.315c-.231-.055-.463-.11-.661-.084-.156-.011-.356.053-.56.156-.203.103-.37.248-.538.393-.168.145-.295.292-.423.44a1.212 1.212 0 0 0-.223.375c-.128.147-.257.295-.418.362a1.986 1.986 0 0 1-.519.12c-.156-.01-.273-.018-.424-.107a1.397 1.397 0 0 1-.37-.299c-.11-.125-.177-.285-.284-.45-.066-.16-.091-.357-.114-.593.01-.156.064-.348.156-.537.22-.336.477-.631.81-.92.293-.254.625-.504.99-.675a5.902 5.902 0 0 1 2.275-.547 4.64 4.64 0 0 1 1.437.217c.5.151.954.378 1.402.683.41.302.773.717 1.056 1.167.28.488.397 1.043.428 1.71.023.782-.066 1.48-.263 2.053-.198.572-.43 1.064-.732 1.473-.305.41-.644.776-1.02 1.102a25.11 25.11 0 0 1-1.127.939c-.375.325-.748.612-1.048.943a7.067 7.067 0 0 0-.83 1.193zm.43 4.446l-.016.233c-.009.117-.02.272-.07.426-.05.152-.102.344-.193.494-.091.19-.218.337-.347.484a2.275 2.275 0 0 1-.616.387c-.242.101-.521.16-.872.136-.277.02-.547-.038-.779-.093a1.356 1.356 0 0 1-.566-.313 1.56 1.56 0 0 1-.392-.574c-.1-.241-.12-.516-.137-.83-.02-.275.04-.545.097-.814.098-.266.193-.494.363-.678.17-.184.378-.365.624-.505.245-.139.563-.195.953-.168.627.004 1.089.153 1.42.45.368.337.533.779.53 1.365z"/>
        <path fill="#684821" d="M124.089 105.196s11.427.298 17.473-16.895c0 0 21.94 40.803-28.647 48.56l11.174-31.665z"/>
        <path fill="#F7AB1B" d="M87.163 145.881s-1.987 9.146-5.297 8.024c-3.313-1.122.386-9.427.386-9.427l4.911 1.403z"/>
        <path fill="#F7AB1B" d="M83.349 145.851s-3.639 8.677-6.671 6.976c-3.032-1.758 2.094-9.3 2.094-9.3l4.577 2.324zM103.377 145.881s1.987 9.146 5.298 8.024c3.312-1.122-.386-9.427-.386-9.427l-4.912 1.403zM109.1 145.851s4.093 8.677 7.504 6.976c3.411-1.758-2.356-9.3-2.356-9.3l-5.148 2.324z"/>
        <path fill="#D59529" d="M82.123 144.478l.09.056s-.226.672-.635 1.625c-.045.168-.09.392-.137.56a31.359 31.359 0 0 0 4.224 1.568c.364-1.344.545-2.408.545-2.408l-4.087-1.4zM81.441 145.43l-3.679-1.904s-.5.762-1.09 1.857c1.317.81 2.68 1.429 3.997 1.952.09-.142.136-.285.227-.429.273-.857.545-1.428.545-1.475M107.374 144.536l.09-.058-4.087 1.443s.182 1.039.546 2.366c1.316-.404 2.724-.98 4.223-1.673a3.26 3.26 0 0 0-.137-.404c-.408-.923-.635-1.674-.635-1.674M109.1 145.504c0 .05.274.643.55 1.484.046.1.091.247.183.347a30.83 30.83 0 0 0 4.035-2.028c-.55-1.04-1.009-1.78-1.009-1.78l-3.76 1.977z"/>
        <path fill="#684821" d="M71.904 132.1c-.02 3.614-.803 7.178-2.711 10.474 0 0-25.586-10.446-10.822-41.895 0 0 13.458 15.966 13.533 31.169v.251z"/>
        <path fill="#A77D43" d="M119.129 74.115c-9.342-3.317-17.338-4.357-23.862-4.276-6.515-.08-14.51.959-23.848 4.276 0 0-7.83-8.385-9.673-7.67-1.839.72-11.205 49.83 6.294 70.08 7.153 8.278 16.885 10.885 27.227 10.808 10.069.077 20.083-2.53 27.236-10.809 17.499-20.249 8.127-69.36 6.29-70.079a.703.703 0 0 0-.254-.043c-2.213 0-9.41 7.713-9.41 7.713"/>
        <path fill="#FFF" d="M112.915 91.634a2.382 2.382 0 0 0 2.383 2.38 2.382 2.382 0 0 0 2.385-2.38 2.38 2.38 0 0 0-2.385-2.38 2.378 2.378 0 0 0-2.383 2.38"/>
        <path fill="#EEE2DD" d="M71.904 134.275c0 1.99.279 3.91.812 5.744 6.603 4.799 14.619 6.418 23.03 6.362 8.2.062 16.363-1.573 23.042-6.39.52-1.825.803-3.735.803-5.716 0-12.244-10.671-22.17-23.844-22.17-13.168 0-23.843 9.926-23.843 22.17"/>
        <path fill="#EEE2DD" d="M78.108 114.01c8.33 0 15.121-3.925 17.162-10.046 1.703 6.12 8.828 10.045 17.162 10.045 9.75 0 17.65-7.87 17.65-17.59 0-9.715-8.999-22.08-17.65-17.595-8.354 4.332-23.366 5.932-34.324 0-1.266-.687-2.543-.996-3.804-.996-7.251 0-13.845 10.308-13.845 18.591 0 9.72 7.9 17.59 17.649 17.59"/>
        <path fill="#FFF" d="M100.516 96.392c0 7.1 5.77 12.857 12.87 12.857 7.115 0 12.88-5.758 12.88-12.857 0-7.099-5.765-12.852-12.88-12.852-7.1 0-12.87 5.753-12.87 12.852"/>
        <path fill="#724D40" d="M103.377 96.873c0 4.201 3.625 7.615 8.11 7.615 4.475 0 8.104-3.414 8.104-7.615 0-4.21-3.63-7.62-8.104-7.62-4.485 0-8.11 3.41-8.11 7.62"/>
        <path fill="#FFF" d="M112.915 92.586a2.38 2.38 0 0 0 2.383 2.38 2.38 2.38 0 1 0 0-4.76 2.378 2.378 0 0 0-2.383 2.38M64.274 96.392c0 7.1 5.762 12.857 12.876 12.857 7.112 0 12.875-5.758 12.875-12.857 0-7.099-5.763-12.852-12.875-12.852-7.114 0-12.876 5.753-12.876 12.852"/>
        <path fill="#724D40" d="M69.996 96.873c0 4.201 3.63 7.615 8.103 7.615 4.48 0 8.11-3.414 8.11-7.615 0-4.21-3.63-7.62-8.11-7.62-4.474 0-8.103 3.41-8.103 7.62"/>
        <path fill="#FFF" d="M74.765 92.586a2.385 2.385 0 0 0 4.769 0 2.38 2.38 0 0 0-2.382-2.38 2.382 2.382 0 0 0-2.387 2.38"/>
        <path fill="#F9A11D" d="M95.27 104.493s-3.38-.263-5.245 3.05c0 0 .875 5.525 5.245 7.419 4.37-1.894 5.246-7.418 5.246-7.418-1.924-3.314-5.246-3.051-5.246-3.051"/>
        <path fill="#EE8122" d="M95.748 112.105c-3.917-1.525-4.77-4.576-4.77-4.576s1.25 1.803 4.655 2.681h.058c3.462-.878 4.825-2.866 4.825-2.866s-.852 3.236-4.768 4.761"/>
        <path fill="#EF4F63" d="M93.79 110.431s-.753-.144-.904-.202c0 0 .251.578.904.924a2.354 2.354 0 0 0 1.003-.952c-.2.057-1.003.23-1.003.23"/>
        <g fill="#CACACA" fill-rule="nonzero">
            <path d="M209.967 125.317c1.88-2.535 2.925-5.492 2.925-8.87 0-8.237-6.476-14.996-14.622-14.996-8.147 0-14.831 6.759-14.831 14.995 0 8.237 6.684 14.995 14.83 14.995 3.343 0 6.476-1.056 8.774-2.956l6.267 6.335c.417.423 1.044.634 1.462.634.418 0 1.044-.211 1.462-.634.836-.844.836-2.112 0-2.956l-6.267-6.547zm-11.697 1.69c-5.85 0-10.653-4.647-10.653-10.56 0-5.914 4.804-10.772 10.653-10.772s10.653 4.858 10.653 10.771c0 5.914-4.804 10.56-10.653 10.56z"/>
        </g>
        <g fill="#CACACA" fill-rule="nonzero">
            <path d="M171.68 23.865c1.88-2.534 2.924-5.49 2.924-8.87C174.604 6.758 168.13 0 159.982 0c-8.146 0-14.83 6.758-14.83 14.995 0 8.237 6.684 14.995 14.83 14.995 3.342 0 6.476-1.056 8.773-2.957l6.267 6.336c.418.423 1.044.634 1.462.634.418 0 1.045-.211 1.462-.634.836-.845.836-2.112 0-2.957l-6.266-6.547zm-11.698 1.69c-5.849 0-10.653-4.646-10.653-10.56 0-5.914 4.804-10.771 10.653-10.771s10.653 4.857 10.653 10.771c0 5.914-4.804 10.56-10.653 10.56z"/>
        </g>
        <g fill="#CACACA" fill-rule="nonzero">
            <path d="M10.914 66.345c2.324 2.135 5.155 3.482 8.516 3.835 8.191.861 15.59-4.872 16.441-12.974.852-8.102-5.171-15.456-13.363-16.317-8.191-.861-15.611 5.08-16.463 13.182-.349 3.324.374 6.55 2.024 9.034l-6.956 5.57c-.464.372-.74.973-.783 1.388-.044.416.1 1.061.477 1.52.753.92 2.013 1.052 2.94.31l7.167-5.548zm-.458-11.81c.612-5.817 5.735-10.11 11.616-9.491 5.88.618 10.21 5.904 9.598 11.72-.611 5.817-5.944 10.088-11.825 9.47-5.882-.619-10-5.882-9.389-11.7z"/>
        </g>
        <g opacity=".603">
            <path fill="#56BCDF" d="M63.003 44.485A2.42 2.42 0 0 0 60.58 46.9a2.42 2.42 0 0 0 2.422 2.413 2.42 2.42 0 0 0 2.423-2.413 2.421 2.421 0 0 0-2.423-2.414zm0 8.428c-3.329 0-6.037-2.697-6.037-6.014s2.708-6.015 6.037-6.015c3.329 0 6.038 2.698 6.038 6.015 0 3.317-2.709 6.014-6.038 6.014zM160.085 106.185a2.42 2.42 0 0 0-2.422 2.413 2.42 2.42 0 0 0 2.422 2.414 2.42 2.42 0 0 0 2.422-2.414 2.421 2.421 0 0 0-2.422-2.413zm0 8.429c-3.33 0-6.037-2.699-6.037-6.016 0-3.316 2.708-6.014 6.037-6.014 3.329 0 6.037 2.698 6.037 6.014 0 3.317-2.708 6.016-6.037 6.016z"/>
            <path fill="#F1BF6C" d="M151.231 127.293c-2.198 0-3.987 1.783-3.987 3.973s1.789 3.973 3.987 3.973c2.2 0 3.988-1.782 3.988-3.973 0-2.19-1.789-3.973-3.988-3.973zm0 11.548c-4.192 0-7.602-3.398-7.602-7.575 0-4.176 3.41-7.574 7.602-7.574 4.193 0 7.603 3.398 7.603 7.574 0 4.177-3.41 7.575-7.603 7.575z"/>
            <path fill="#B8D6CA" d="M39.316 123.85c0 3.29-2.677 5.959-5.98 5.959-3.304 0-5.98-2.668-5.98-5.959 0-3.291 2.676-5.958 5.98-5.958 3.303 0 5.98 2.667 5.98 5.958"/>
            <g fill="#00AB8C">
                <path d="M30.306 93.71a1.804 1.804 0 0 1-1.808-1.801V83.95c0-.994.81-1.8 1.808-1.8s1.807.806 1.807 1.8v7.959c0 .995-.81 1.8-1.807 1.8"/>
                <path d="M34.3 89.73H26.31a1.804 1.804 0 0 1-1.807-1.801c0-.994.81-1.8 1.807-1.8H34.3c.997 0 1.807.806 1.807 1.8 0 .995-.81 1.8-1.807 1.8"/>
            </g>
            <g fill="#F1BF6C">
                <path d="M111.262 47.267a1.805 1.805 0 0 1-1.808-1.8V34.838c0-.994.81-1.8 1.808-1.8.999 0 1.807.806 1.807 1.8v10.629c0 .994-.808 1.8-1.807 1.8"/>
                <path d="M116.596 41.953h-10.668a1.804 1.804 0 0 1-1.807-1.8c0-.995.808-1.801 1.807-1.801h10.668c.999 0 1.807.806 1.807 1.8 0 .995-.808 1.801-1.807 1.801"/>
            </g>
        </g>
    </g>
</svg>
