<svg xmlns="http://www.w3.org/2000/svg" xmlns:xlink="http://www.w3.org/1999/xlink" width="149" height="143" viewBox="0 0 149 143">
    <defs>
        <rect id="b" width="80" height="10" x="34" y="116" rx="5"/>
        <filter id="a" width="152.9%" height="522.9%" x="-26.4%" y="-211.4%" filterUnits="objectBoundingBox">
            <feGaussianBlur in="SourceGraphic" stdDeviation="7.048"/>
        </filter>
        <path id="c" d="M.625.772h36.937v41.885H.625z"/>
    </defs>
    <g fill="none" fill-rule="evenodd">
        <g filter="url(#a)" opacity=".244" transform="translate(0 -1)">
            <use fill="#000" style="mix-blend-mode:multiply" xlink:href="#b"/>
            <rect width="79" height="9" x="34.5" y="116.5" stroke="#979797" rx="4.5"/>
        </g>
        <path fill="#684821" d="M100.089 72.196s11.427.298 17.473-16.895c0 0 21.94 40.803-28.647 48.56l11.174-31.665z"/>
        <path fill="#F7AB1B" d="M63.163 112.881s-1.987 9.146-5.297 8.024c-3.313-1.122.386-9.427.386-9.427l4.911 1.403z"/>
        <path fill="#F7AB1B" d="M59.349 112.851s-3.639 8.677-6.671 6.976c-3.032-1.758 2.094-9.3 2.094-9.3l4.577 2.324zM79.377 112.881s1.987 9.146 5.298 8.024c3.312-1.122-.386-9.427-.386-9.427l-4.912 1.403z"/>
        <path fill="#F7AB1B" d="M84.1 111.851s4.093 8.677 7.504 6.976c3.411-1.758-2.356-9.3-2.356-9.3L84.1 111.85z"/>
        <path fill="#D59529" d="M59.464 111.167l.091.056s-.227.672-.635 1.625c-.046.168-.091.392-.137.56a31.359 31.359 0 0 0 4.223 1.568c.364-1.344.545-2.409.545-2.409l-4.087-1.4zM58.551 112.071l-3.679-1.904s-.5.762-1.09 1.857c1.318.81 2.68 1.428 3.997 1.952.09-.142.136-.285.227-.429.273-.857.545-1.428.545-1.476M83.78 111.225l.09-.058-4.087 1.443s.181 1.039.545 2.366c1.317-.404 2.725-.981 4.223-1.673-.045-.173-.09-.289-.136-.404-.409-.923-.636-1.674-.636-1.674M84.783 111.145c0 .05.274.643.55 1.484.046.1.091.247.183.347a30.83 30.83 0 0 0 4.035-2.029 33.87 33.87 0 0 0-1.009-1.78l-3.76 1.978z"/>
        <path fill="#684821" d="M47.904 99.1c-.02 3.614-.803 7.178-2.711 10.474 0 0-25.586-10.446-10.822-41.895 0 0 13.458 15.966 13.533 31.169v.251z"/>
        <path fill="#A77D43" d="M95.129 41.115c-9.342-3.317-17.338-4.357-23.862-4.276-6.515-.08-14.51.959-23.848 4.276 0 0-7.83-8.385-9.673-7.67-1.839.72-11.205 49.83 6.294 70.08 7.153 8.278 16.885 10.885 27.227 10.808 10.069.077 20.083-2.53 27.236-10.809 17.499-20.249 8.127-69.36 6.29-70.079a.703.703 0 0 0-.254-.043c-2.213 0-9.41 7.713-9.41 7.713"/>
        <path fill="#FFF" d="M88.915 58.634a2.382 2.382 0 0 0 2.383 2.38 2.382 2.382 0 0 0 2.385-2.38 2.38 2.38 0 0 0-2.385-2.38 2.378 2.378 0 0 0-2.383 2.38"/>
        <path fill="#EEE2DD" d="M47.904 102.275c0 1.99.279 3.91.812 5.744 6.603 4.799 14.619 6.418 23.03 6.362 8.2.062 16.363-1.573 23.042-6.39.52-1.825.803-3.735.803-5.716 0-12.244-10.671-22.17-23.844-22.17-13.168 0-23.843 9.926-23.843 22.17"/>
        <path fill="#EEE2DD" d="M54.108 81.01c8.33 0 15.121-3.925 17.162-10.046 1.703 6.12 8.828 10.045 17.162 10.045 9.75 0 17.65-7.87 17.65-17.59 0-9.715-8.999-22.08-17.65-17.595-8.354 4.332-23.366 5.932-34.324 0-1.266-.687-2.543-.996-3.804-.996-7.251 0-13.845 10.308-13.845 18.591 0 9.72 7.9 17.59 17.649 17.59"/>
        <path fill="#FFF" d="M76.516 63.392c0 7.1 5.77 12.857 12.87 12.857 7.115 0 12.88-5.758 12.88-12.857 0-7.099-5.765-12.852-12.88-12.852-7.1 0-12.87 5.753-12.87 12.852"/>
        <path fill="#724D40" d="M79.377 63.873c0 4.201 3.625 7.615 8.11 7.615 4.475 0 8.104-3.414 8.104-7.615 0-4.21-3.63-7.62-8.104-7.62-4.485 0-8.11 3.41-8.11 7.62"/>
        <path fill="#FFF" d="M88.915 59.586a2.38 2.38 0 0 0 2.383 2.38 2.38 2.38 0 1 0 0-4.76 2.378 2.378 0 0 0-2.383 2.38M40.274 63.392c0 7.1 5.762 12.857 12.876 12.857 7.112 0 12.875-5.758 12.875-12.857 0-7.099-5.763-12.852-12.875-12.852-7.114 0-12.876 5.753-12.876 12.852"/>
        <path fill="#724D40" d="M45.996 63.873c0 4.201 3.63 7.615 8.103 7.615 4.48 0 8.11-3.414 8.11-7.615 0-4.21-3.63-7.62-8.11-7.62-4.474 0-8.103 3.41-8.103 7.62"/>
        <path fill="#FFF" d="M50.765 59.586a2.385 2.385 0 0 0 4.769 0 2.38 2.38 0 0 0-2.382-2.38 2.382 2.382 0 0 0-2.387 2.38"/>
        <path fill="#F9A11D" d="M71.27 71.493s-3.38-.263-5.245 3.05c0 0 .875 5.525 5.245 7.419 4.37-1.894 5.246-7.418 5.246-7.418-1.924-3.314-5.246-3.051-5.246-3.051"/>
        <path fill="#EE8122" d="M71.748 79.105c-3.917-1.525-4.77-4.576-4.77-4.576s1.25 1.803 4.655 2.681h.058c3.462-.878 4.825-2.866 4.825-2.866s-.852 3.236-4.768 4.761"/>
        <path fill="#EF4F63" d="M69.79 77.431s-.753-.144-.904-.202c0 0 .251.578.904.924a2.354 2.354 0 0 0 1.003-.952c-.2.057-1.003.23-1.003.23"/>
        <g opacity=".603">
            <path fill="#56BCDF" d="M39.003 11.485A2.42 2.42 0 0 0 36.58 13.9a2.42 2.42 0 0 0 2.422 2.413 2.42 2.42 0 0 0 2.423-2.413 2.421 2.421 0 0 0-2.423-2.414zm0 8.428c-3.329 0-6.037-2.697-6.037-6.014s2.708-6.015 6.037-6.015c3.329 0 6.038 2.698 6.038 6.015 0 3.317-2.709 6.014-6.038 6.014zM133.376 23.575a2.42 2.42 0 0 0-2.422 2.413 2.42 2.42 0 0 0 2.422 2.414 2.42 2.42 0 0 0 2.423-2.414 2.421 2.421 0 0 0-2.423-2.413zm0 8.429c-3.329 0-6.037-2.699-6.037-6.016 0-3.316 2.708-6.014 6.037-6.014 3.329 0 6.037 2.698 6.037 6.014 0 3.317-2.708 6.016-6.037 6.016z"/>
            <path fill="#F1BF6C" d="M140.942 88.575c-2.2 0-3.988 1.783-3.988 3.973s1.789 3.973 3.988 3.973 3.987-1.783 3.987-3.973-1.788-3.973-3.987-3.973zm0 11.548c-4.193 0-7.603-3.398-7.603-7.575 0-4.176 3.41-7.574 7.603-7.574 4.192 0 7.602 3.398 7.602 7.574 0 4.177-3.41 7.575-7.602 7.575z"/>
            <path fill="#B8D6CA" d="M15.316 90.85c0 3.29-2.677 5.959-5.98 5.959-3.304 0-5.98-2.668-5.98-5.959 0-3.291 2.676-5.958 5.98-5.958 3.303 0 5.98 2.667 5.98 5.958"/>
            <g fill="#00AB8C">
                <path d="M6.306 60.71a1.804 1.804 0 0 1-1.808-1.801V50.95c0-.994.81-1.8 1.808-1.8s1.807.806 1.807 1.8v7.959c0 .995-.81 1.8-1.807 1.8"/>
                <path d="M10.3 56.73H2.31a1.804 1.804 0 0 1-1.807-1.801c0-.994.81-1.8 1.807-1.8H10.3c.997 0 1.807.806 1.807 1.8 0 .995-.81 1.8-1.807 1.8"/>
            </g>
            <g fill="#F1BF6C">
                <path d="M87.262 14.267a1.805 1.805 0 0 1-1.808-1.8V1.838c0-.994.81-1.8 1.808-1.8.999 0 1.807.806 1.807 1.8v10.629c0 .994-.808 1.8-1.807 1.8"/>
                <path d="M92.596 8.953H81.928a1.804 1.804 0 0 1-1.807-1.8c0-.995.808-1.801 1.807-1.801h10.668c.999 0 1.807.806 1.807 1.8 0 .995-.808 1.801-1.807 1.801"/>
            </g>
        </g>
    </g>
</svg>
