<svg xmlns="http://www.w3.org/2000/svg" width="22" height="30" viewBox="0 0 22 30">
    <path fill="#1DACE5" fill-rule="nonzero" d="M15.131.233c-.21-.09-.63-.267-.93-.144L1.591 5.281c-.6.248-.871.886-.632 1.49.24.603.869.87 1.47.623l.9-.37L7.636 17.89l-.9.371c-.601.247-.872.886-.633 1.49.24.603.87.87 1.47.623l5.404-2.225 4.307 10.867c.24.603.87.87 1.47.623s.871-.885.632-1.489l-4.307-10.867 5.404-2.225c.6-.247.872-.885.632-1.489a1.092 1.092 0 0 0-1.47-.624l-.9.371L14.438 2.45l.9-.37c.601-.248.872-.886.633-1.49-.3.124-.42-.178-.84-.356z"/>
</svg>
