<svg xmlns="http://www.w3.org/2000/svg" xmlns:xlink="http://www.w3.org/1999/xlink" width="122" height="32" viewBox="0 0 122 32">
    <defs>
        <circle id="a" cx="16" cy="16" r="16"/>
        <circle id="b" cx="26" cy="16" r="16"/>
        <circle id="c" cx="36" cy="16" r="16"/>
        <circle id="d" cx="46" cy="16" r="16"/>
        <circle id="e" cx="56" cy="16" r="16"/>
        <circle id="f" cx="66" cy="16" r="16"/>
        <circle id="g" cx="76" cy="16" r="16"/>
        <circle id="h" cx="86" cy="16" r="16"/>
        <circle id="i" cx="96" cy="16" r="16"/>
        <circle id="j" cx="106" cy="16" r="16"/>
    </defs>
    <g fill="none" fill-rule="evenodd">
        <g>
            <use fill="#F36917" xlink:href="#a"/>
            <circle cx="16" cy="16" r="15" stroke="#FFF" stroke-width="2"/>
        </g>
        <g>
            <use fill="#E8871A" xlink:href="#b"/>
            <circle cx="26" cy="16" r="15" stroke="#FFF" stroke-width="2"/>
        </g>
        <g>
            <use fill="#DDA11E" xlink:href="#c"/>
            <circle cx="36" cy="16" r="15" stroke="#FFF" stroke-width="2"/>
        </g>
        <g>
            <use fill="#D3B721" xlink:href="#d"/>
            <circle cx="46" cy="16" r="15" stroke="#FFF" stroke-width="2"/>
        </g>
        <g>
            <use fill="#BEC022" xlink:href="#e"/>
            <circle cx="56" cy="16" r="15" stroke="#FFF" stroke-width="2"/>
        </g>
        <g>
            <use fill="#A3BE21" xlink:href="#f"/>
            <circle cx="66" cy="16" r="15" stroke="#FFF" stroke-width="2"/>
        </g>
        <g>
            <use fill="#87B31E" xlink:href="#g"/>
            <circle cx="76" cy="16" r="15" stroke="#FFF" stroke-width="2"/>
        </g>
        <g>
            <use fill="#6CA820" xlink:href="#h"/>
            <circle cx="86" cy="16" r="15" stroke="#FFF" stroke-width="2"/>
        </g>
        <g>
            <use fill="#559E22" xlink:href="#i"/>
            <circle cx="96" cy="16" r="15" stroke="#FFF" stroke-width="2"/>
        </g>
        <g>
            <use fill="#449225" xlink:href="#j"/>
            <circle cx="106" cy="16" r="15" stroke="#FFF" stroke-width="2"/>
        </g>
        <text fill="#FFF" font-family="OpenSans-Bold, Open Sans" font-size="12" font-weight="bold">
            <tspan x="99.15" y="21">10</tspan>
        </text>
    </g>
</svg>
