<svg xmlns="http://www.w3.org/2000/svg" width="18" height="18" viewBox="0 0 18 18">
    <path fill="#647981" fill-rule="evenodd" d="M6.75 0C4.889 0 3.299.66 1.98 1.98.66 3.298 0 4.888 0 6.75c0 1.861.66 3.451 1.98 4.77 1.319 1.32 2.909 1.98 4.77 1.98a6.54 6.54 0 0 0 3.604-1.042l5.084 5.104c.291.292.645.438 1.062.438.417 0 .77-.146 1.063-.438.291-.291.437-.645.437-1.062 0-.417-.146-.77-.438-1.063l-5.104-5.083A6.54 6.54 0 0 0 13.5 6.75c0-1.861-.66-3.451-1.98-4.77C10.202.66 8.612 0 6.75 0zm0 11.25c-1.236 0-2.295-.441-3.177-1.323C2.69 9.045 2.25 7.987 2.25 6.75c0-1.236.441-2.295 1.323-3.177.882-.882 1.94-1.323 3.177-1.323 1.236 0 2.295.441 3.177 1.323.882.882 1.323 1.94 1.323 3.177 0 1.236-.441 2.295-1.323 3.177-.882.882-1.94 1.323-3.177 1.323z"/>
</svg>
