<svg xmlns="http://www.w3.org/2000/svg" xmlns:xlink="http://www.w3.org/1999/xlink" width="216" height="98" viewBox="0 0 216 98">
    <defs>
        <filter id="a" width="113%" height="131.3%" x="-5.5%" y="-13.3%" filterUnits="objectBoundingBox">
            <feOffset dx="2" dy="2" in="SourceAlpha" result="shadowOffsetOuter1"/>
            <feGaussianBlur in="shadowOffsetOuter1" result="shadowBlurOuter1" stdDeviation="4"/>
            <feColorMatrix in="shadowBlurOuter1" result="shadowMatrixOuter1" values="0 0 0 0 0 0 0 0 0 0 0 0 0 0 0 0 0 0 0.25 0"/>
            <feMerge>
                <feMergeNode in="shadowMatrixOuter1"/>
                <feMergeNode in="SourceGraphic"/>
            </feMerge>
        </filter>
        <path id="b" d="M143.908 8.592L152.5 0l8.592 8.592H196a4 4 0 0 1 4 4V79a4 4 0 0 1-4 4H4a4 4 0 0 1-4-4V12.592a4 4 0 0 1 4-4h139.908z"/>
    </defs>
    <g fill="none" fill-rule="evenodd" filter="url(#a)" transform="translate(6 5)">
        <use fill="#EFFFDE" xlink:href="#b"/>
        <path stroke="#7DD935" stroke-width=".5" d="M152.5.354l-8.415 8.415-.177.073H4a3.75 3.75 0 0 0-3.75 3.75V79A3.75 3.75 0 0 0 4 82.75h192a3.75 3.75 0 0 0 3.75-3.75V12.592a3.75 3.75 0 0 0-3.75-3.75h-34.908l-.177-.073L152.5.354z"/>
        <text fill="#032532" font-family="OpenSans-Semibold, Open Sans" font-size="14" font-weight="500">
            <tspan x="45" y="37">Awesome! </tspan> <tspan x="45" y="60">Saved Successful!</tspan>
        </text>
        <path fill="#229E49" d="M16 34.696l1.8-1.826 4.2 3.043L32.2 28l1.8 1.826L22 42z"/>
    </g>
</svg>
