<svg width="356" height="246" viewBox="0 0 356 246" fill="none" xmlns="http://www.w3.org/2000/svg">
<path d="M155.921 175.136C145.491 175.012 132.703 176.599 117.764 181.661C117.764 181.661 106.254 169.89 102.715 169.89C102.566 169.89 102.426 169.912 102.309 169.957C100.146 170.764 91.4521 211.601 98.1824 245.42H213.648C214.114 243.079 214.506 240.704 214.832 238.312C219.209 206.139 211.542 170.708 209.527 169.957C206.58 168.866 194.057 181.661 194.057 181.661C179.126 176.599 166.34 175.012 155.921 175.136Z" fill="#CDE9F5"/>
<path fill-rule="evenodd" clip-rule="evenodd" d="M145.653 215.648C145.653 226.69 136.652 235.646 125.579 235.646C114.482 235.646 105.49 226.69 105.49 215.648C105.49 204.607 114.482 195.659 125.579 195.659C136.652 195.659 145.653 204.607 145.653 215.648Z" fill="#FEFEFE"/>
<path fill-rule="evenodd" clip-rule="evenodd" d="M209.913 215.648C209.913 226.69 200.926 235.646 189.831 235.646C178.738 235.646 169.75 226.69 169.75 215.648C169.75 204.607 178.738 195.659 189.831 195.659C200.926 195.659 209.913 204.607 209.913 215.648Z" fill="#FEFEFE"/>
<path d="M157.701 226.767C157.701 226.767 162.59 226.366 165.288 231.427C165.288 231.427 164.023 239.862 157.701 242.755C151.379 239.862 150.115 231.427 150.115 231.427C152.897 226.366 157.701 226.767 157.701 226.767Z" fill="#F9A21A"/>
<path d="M184.433 197.074C191.285 194.309 199.067 197.712 201.817 204.604C204.566 211.496 201.182 219.323 194.33 222.089C187.479 224.854 179.696 221.45 176.947 214.559C175.086 209.879 176.059 204.732 179.02 201.073L189.382 209.581L184.433 197.074Z" fill="#262262"/>
<path d="M121.065 197.972C127.916 195.207 135.699 198.61 138.448 205.502C141.197 212.394 137.814 220.221 130.962 222.987C124.11 225.752 116.328 222.349 113.578 215.457C111.717 210.777 112.69 205.63 115.651 201.971L126.013 210.479L121.065 197.972Z" fill="#262262"/>
<path d="M234.24 120.092C234.251 105.185 246.344 93.1097 261.251 93.1206V93.1206C276.157 93.1316 288.232 105.225 288.221 120.131L288.126 245.412L234.145 245.372L234.24 120.092Z" fill="#CDE9F5"/>
<path d="M301.026 27.6671C301.038 12.7605 313.131 0.685203 328.037 0.696223V0.696223C342.944 0.707243 355.019 12.8004 355.008 27.707L354.844 244.962L300.863 244.922L301.026 27.6671Z" fill="#1B314C"/>
<path d="M-9.91821e-05 245.42C-9.91821e-05 204.401 33.816 171.149 75.5303 171.149L75.5303 245.42L-9.91821e-05 245.42Z" fill="#FFA700"/>
<circle cx="38.3946" cy="132.754" r="37.1358" fill="#1B314C"/>
<path d="M75.53 132.125C75.53 111.963 59.1856 95.6185 39.0237 95.6185V132.125L75.53 132.125Z" fill="#CDE9F5"/>
</svg>
