<svg width="590" height="374" viewBox="0 0 590 374" fill="none" xmlns="http://www.w3.org/2000/svg">
<path d="M401.057 143.152C401.074 120.748 419.25 102.599 441.654 102.615V102.615C464.058 102.632 482.206 120.808 482.189 143.212L482.016 372.887L400.884 372.827L401.057 143.152Z" fill="#CDE9F5"/>
<path d="M508.446 41.1823C508.462 18.6699 526.725 0.433902 549.238 0.450997V0.450997C571.75 0.468092 589.987 18.7318 589.97 41.2442L589.727 373.424L508.202 373.362L508.446 41.1823Z" fill="#1B314C"/>
<path d="M258.767 282.033C210.176 282.033 170.786 322.582 170.786 372.601L258.767 372.601L258.767 282.033Z" fill="#1B314C"/>
<path d="M285.937 282.033C334.527 282.033 373.917 322.582 373.917 372.601L285.937 372.601L285.937 282.033Z" fill="#FFA700"/>
<path d="M72.2446 288.324C59.7371 288.175 44.4039 290.078 26.4899 296.148C26.4899 296.148 12.6889 282.033 8.44553 282.033C8.26706 282.033 8.09862 282.06 7.95824 282.113C5.36421 283.082 -5.06012 332.048 3.01016 372.601H141.465C142.024 369.794 142.494 366.946 142.884 364.077C148.133 325.499 138.939 283.014 136.523 282.113C132.989 280.805 117.973 296.148 117.973 296.148C100.069 290.078 84.7381 288.175 72.2446 288.324Z" fill="#CDE9F5"/>
<path fill-rule="evenodd" clip-rule="evenodd" d="M59.9316 336.902C59.9316 350.141 49.1395 360.881 35.8609 360.881C22.5546 360.881 11.7724 350.141 11.7724 336.902C11.7724 323.663 22.5546 312.933 35.8609 312.933C49.1395 312.933 59.9316 323.663 59.9316 336.902Z" fill="#FEFEFE"/>
<path fill-rule="evenodd" clip-rule="evenodd" d="M138.28 336.902C138.28 350.141 127.503 360.881 114.199 360.881C100.897 360.881 90.1205 350.141 90.1205 336.902C90.1205 323.663 100.897 312.933 114.199 312.933C127.503 312.933 138.28 323.663 138.28 336.902Z" fill="#FEFEFE"/>
<path d="M75.6723 350.235C75.6723 350.235 81.5346 349.753 84.769 355.822C84.769 355.822 83.2529 365.937 75.6723 369.405C68.0917 365.937 66.5756 355.822 66.5756 355.822C69.911 349.753 75.6723 350.235 75.6723 350.235Z" fill="#F9A21A"/>
<path d="M107.205 316.206C115.428 312.925 124.768 316.963 128.067 325.141C131.366 333.318 127.306 342.606 119.083 345.888C110.86 349.169 101.52 345.13 98.2205 336.953C95.9871 331.4 97.1545 325.292 100.708 320.951L113.144 331.047L107.205 316.206Z" fill="#262262"/>
<path d="M31.155 317.271C39.378 313.99 48.7177 318.028 52.017 326.206C55.3164 334.383 51.2556 343.672 43.0327 346.953C34.8097 350.234 25.47 346.195 22.1706 338.018C19.9372 332.465 21.1047 326.357 24.6579 322.016L37.0938 332.112L31.155 317.271Z" fill="#262262"/>
</svg>
