<svg fill="none" height="92" viewBox="0 0 92 92" width="92" xmlns="http://www.w3.org/2000/svg"><circle cx="46" cy="46" fill="#1a9dd1" r="46"/><circle cx="46" cy="46" r="46" stroke="#1B314C"/><path d="m82.5973 37.0942-36.3003 12.8311c-.5101.1689-1.0202.1689-1.4452 0l-36.38534-12.8311c-1.95528-.6754-1.95528-3.3767 0-4.052l36.30034-12.9156c.51-.1688 1.0201-.1688 1.4452 0l36.3853 12.9156c1.8703.6753 1.8703 3.3766 0 4.052zm-2.6354 14.6883v-9.2013l-4.3356 1.5195v7.8506c-.8501.6753-1.4452 1.7727-1.4452 2.9545 0 2.1104 1.7002 3.7143 3.7405 3.7143s3.7406-1.6883 3.7406-3.7143c0-1.3506-.6801-2.5324-1.7003-3.1233zm-34.43 2.6169c-.7651 0-1.5302-.0845-2.2103-.3377l-23.3785-8.2727v17.9805c15.2173 10.974 35.8753 10.974 51.0925 0v-18.065l-23.2934 8.2728c-.7651.2532-1.4452.4221-2.2103.4221z" fill="#cde9f5"/></svg>