<svg fill="none" height="92" viewBox="0 0 92 92" width="92" xmlns="http://www.w3.org/2000/svg"><circle cx="46" cy="46" fill="#1a9dd1" r="46"/><circle cx="46" cy="46" r="46" stroke="#1B314C"/><g fill="#cde9f5"><path d="m36.2697 30.6335c.9691 0 1.7546-.7856 1.7546-1.7546s-.7855-1.7546-1.7546-1.7546c-.969 0-1.7546.7856-1.7546 1.7546s.7856 1.7546 1.7546 1.7546z"/><path d="m55.3596 30.6335c.9691 0 1.7546-.7856 1.7546-1.7546s-.7855-1.7546-1.7546-1.7546c-.969 0-1.7546.7856-1.7546 1.7546s.7856 1.7546 1.7546 1.7546z"/><path d="m45.8849 42.4242c2.7371 0 4.8427-2.5266 4.7725-5.1935 0-1.0528-1.6844-1.0528-1.6143 0 .0702 1.7546-1.2633 3.5091-3.1582 3.5793-1.895 0-3.2284-1.7546-3.2284-3.5092 0-1.0527-1.6143-1.0527-1.6143 0-.0702 2.667 2.0354 5.1234 4.8427 5.1234z"/><path d="m71.8527 38.494c0-.0701-.0702-.0701-.0702-.1403l-4.0706-4.0707v-16.2825h-16.3527l-2.9478-2.9477c-.7018-.7019-1.6142-1.0528-2.5967-1.0528-.9826 0-1.895.3509-2.5968 1.0528l-2.9477 2.9477h-16.3528v16.3527l-4.0706 4.0707c-.0702.0701-.0702.0701-.0702.1403-.9124.7019-1.4739 1.8248-1.4739 3.0881v29.6174c0 2.1757 1.7546 3.9303 3.9303 3.9303h47.1633c2.1757 0 3.9303-1.7546 3.9303-3.9303v-29.6876c0-1.2633-.5615-2.316-1.4739-3.0881zm-4.1408-1.3334 2.667 2.6669c.2807.2808.4913.7019.4913 1.1931 0 .4913-.1404.8422-.4913 1.1932l-2.667 2.6669zm-23.0904-20.7744c.351-.3509.7019-.4912 1.1932-.4912.4912 0 .8422.1403 1.1931.4912l1.544 1.5441h-5.5445zm-18.7389 3.5794h39.8642v26.389c0 .2807-.1404.6316-.351.8422l-8.7729 8.7729-8.3518-8.2816c-.6317-.6317-1.5441-1.0528-2.4564-1.0528-.9124 0-1.8248.3509-2.4565 1.0528l-8.3518 8.2816-8.7729-8.7729c-.2106-.2106-.3509-.4913-.3509-.8422zm-4.6322 19.8619 2.667-2.6669v7.6499l-2.667-2.6669c-.2807-.3509-.4912-.7019-.4912-1.1931 0-.4913.1403-.8422.4912-1.123zm-.9825 31.3019v-27.1611l4.3513 4.3514c.0702.0702.1404.2106.2106.2808l8.8431 8.8431-12.633 12.633c-.3509.2106-.6317.6317-.772 1.0528zm49.1986 2.1756h-47.2335s0 0-.0702 0c-.1403-.2105-.2105-.4912-.2105-.772 0-.4211.1403-.772.4211-1.1229l22.3183-22.3184c.2808-.2807.7019-.4211 1.123-.4211s.772.1404 1.1229.4211l22.3183 22.3184c.2808.2807.4211.7018.4211 1.1229 0 .2106-.0701.4913-.2105.772zm1.8949-2.1756c-.1403-.4211-.4211-.7721-.772-1.123l-12.633-12.633 8.8431-8.8431c.0702-.0702.1404-.2106.2106-.2808l4.3513-4.3513z"/><path d="m19.0203 72.0986v-30.0986l15.6337 15.3333 11.3211-10.7901 11.321 10.7901 14.5556-15.3333c-.1797 5.8683-.4313 18.6271 0 22.7159.4312 4.0889-.1797 8.1399-.5391 9.6543-13.2977 0-41.1869.1136-46.3622.5679s-6.1098-1.7037-5.9301-2.8395z"/></g></svg>