<svg fill="none" height="92" viewBox="0 0 92 92" width="92" xmlns="http://www.w3.org/2000/svg"><circle cx="46" cy="46" fill="#1a9dd1" r="46"/><circle cx="46" cy="46" r="46" stroke="#1B314C"/><g fill="#cde9f5"><path d="m27.0338 58.4316h-6.3369v-17.3496l.0615-2.8506.1026-3.1172c-1.0528 1.0527-1.7842 1.7432-2.1944 2.0713l-3.4453 2.7685-3.0557-3.8144 9.6592-7.6904h5.209zm29.1211-14.9912c0 5.2363-.8613 9.1123-2.584 11.6279-1.709 2.5156-4.3476 3.7734-7.916 3.7734-3.459 0-6.0703-1.2988-7.834-3.8964-1.75-2.5977-2.625-6.4327-2.625-11.5049 0-5.291.8545-9.1875 2.5635-11.6895 1.709-2.5156 4.3408-3.7734 7.8955-3.7734 3.459 0 6.0703 1.3125 7.834 3.9375 1.7773 2.625 2.666 6.4668 2.666 11.5254zm-14.6631 0c0 3.6777.3145 6.3164.9434 7.916.6426 1.5859 1.7158 2.3789 3.2197 2.3789 1.4766 0 2.543-.8067 3.1992-2.4199.6563-1.6133.9844-4.2383.9844-7.875 0-3.6778-.335-6.3164-1.0049-7.916-.6562-1.6133-1.7158-2.42-3.1787-2.42-1.4902 0-2.5566.8067-3.1992 2.42-.6426 1.5996-.9639 4.2382-.9639 7.916z"/><path d="m61.5792 51.603-4.79 12.8496h-2.4346l4.7901-12.8496zm7.5235 12.8496h-2.7159v-7.4355l.0264-1.2217.044-1.3359c-.4512.4511-.7647.747-.9405.8877l-1.4765 1.1865-1.3096-1.6348 4.1396-3.2959h2.2325zm12.4804-6.4248c0 2.2442-.3691 3.9053-1.1074 4.9834-.7324 1.0782-1.8633 1.6172-3.3926 1.6172-1.4824 0-2.6015-.5566-3.3574-1.6699-.75-1.1133-1.125-2.7568-1.125-4.9307 0-2.2675.3662-3.9375 1.0986-5.0097.7325-1.0782 1.8604-1.6172 3.3838-1.6172 1.4825 0 2.6016.5625 3.3575 1.6875.7617 1.125 1.1425 2.7715 1.1425 4.9394zm-6.2841 0c0 1.5762.1347 2.7071.4042 3.3926.2754.6797.7354 1.0195 1.3799 1.0195.6328 0 1.0899-.3457 1.3711-1.0371.2813-.6914.4219-1.8164.4219-3.375 0-1.5761-.1436-2.707-.4307-3.3925-.2812-.6915-.7353-1.0372-1.3623-1.0372-.6386 0-1.0957.3457-1.3711 1.0372-.2754.6855-.413 1.8164-.413 3.3925z"/></g></svg>