<svg xmlns="http://www.w3.org/2000/svg" xmlns:xlink="http://www.w3.org/1999/xlink" width="53" height="32" viewBox="0 0 43 27"><defs><path id="A" d="M.213.25h20.124v20.726H.213V.25z"/><path id="B" d="M12.595 9.045H.135V.2h12.46v8.856z"/></defs><g fill="none" fill-rule="evenodd"><path stroke="#715012" stroke-linecap="square" stroke-width="1.26" d="M4.376 11.305L.896 4.95"/><g fill-rule="nonzero"><path fill="#684821" d="M9.313 13.732s-2.82.448-5.017-3.1c0 0-3.783 9.66 9.07 9.66l-4.053-6.55z"/><g fill="#faac18"><path d="M19.23 24.135s.5 2.203 1.36 1.933-.1-2.27-.1-2.27l-1.26.338z"/><path d="M20.478 23.8s.935 2.07 1.715 1.663c.78-.42-.54-2.217-.54-2.217l-1.176.554zm-5.838.325s-.5 2.203-1.36 1.933.1-2.27.1-2.27l1.26.338z"/><path d="M13.394 23.8s-.936 2.07-1.715 1.663c-.78-.42.54-2.217.54-2.217l1.176.554z"/></g><g fill="#d89614"><path d="M20.506 23.797l-.028.013s.071.162.198.392c.015.04.029.095.043.136-.453.162-.907.283-1.318.378-.113-.324-.17-.581-.17-.581l1.275-.338z"/><path d="M20.506 23.797l1.148-.54a7.63 7.63 0 0 0 .34.527c-.4.23-.836.406-1.247.555-.028-.04-.042-.082-.07-.122l-.17-.42zm-7.112.013l-.03-.013 1.276.338s-.057.243-.17.554c-.41-.095-.85-.23-1.318-.392a.68.68 0 0 1 .042-.095c.128-.216.2-.392.2-.392z"/><path d="M13.365 23.797c0 .013-.085.175-.17.405-.014.027-.028.068-.056.095-.41-.15-.836-.338-1.247-.554l.31-.487 1.162.54z"/></g></g><path fill="#684821" d="M24.276 19.916c.15.906.494 1.768 1.12 2.516 0 0 6.24-3.674 1.15-10.954 0 0-2.866 4.56-2.28 8.375l.01.063z"/><g transform="matrix(-1 0 0 1 27.229 3.314)"><mask id="C" fill="#fff"><use xlink:href="#A"/></mask><path fill="#a77d43" d="M16.648 2.225c-2.496-.85-4.63-1.116-6.374-1.095-1.74-.02-3.875.245-6.37 1.095 0 0-2.1-2.147-2.583-1.964S-1.672 13.02 3 18.208c1.912 2.12 4.51 2.787 7.273 2.768 2.7.02 5.364-.648 7.275-2.768C22.223 13.022 19.72.445 19.23.26a.193.193 0 0 0-.068-.012c-.59 0-2.513 1.976-2.513 1.976" mask="url(#C)"/></g><path fill="#fefefe" d="M12.43 10.018c0 .32-.275.58-.615.58s-.614-.26-.614-.58.274-.582.614-.582.615.26.615.58"/><g transform="matrix(-1 0 0 1 23.318 15.285)"><mask id="D" fill="#fff"><use xlink:href="#B"/></mask><path fill="#eee2dd" d="M.135 5.917a5.22 5.22 0 0 0 .212 1.484c1.725 1.24 3.82 1.658 6.018 1.644 2.142.016 4.275-.407 6.02-1.65a5.32 5.32 0 0 0 .21-1.477c0-3.164-2.788-5.728-6.23-5.728S.135 2.753.135 5.917" mask="url(#D)"/></g><path fill="#eee2dd" d="M21.727 15.542c-2.2 0-3.995-.982-4.534-2.513-.45 1.53-2.333 2.513-4.535 2.513-2.576 0-4.664-1.97-4.664-4.4s2.378-5.525 4.664-4.403c2.207 1.084 6.174 1.484 9.07 0a2.17 2.17 0 0 1 1.005-.25c1.915 0 3.658 2.58 3.658 4.652 0 2.432-2.088 4.4-4.664 4.4z"/><path fill="#fefefe" d="M15.776 11.03c0 1.774-1.525 3.213-3.402 3.213S8.97 12.805 8.97 11.03s1.524-3.21 3.404-3.21 3.402 1.437 3.402 3.21"/><path fill="#724c40" d="M14.938 11.45c0 1.12-.962 2.03-2.153 2.03s-2.15-.9-2.15-2.03.963-2.034 2.15-2.034 2.153.9 2.153 2.033"/><path fill="#fefefe" d="M12.424 10.53c0 .32-.275.58-.614.58s-.615-.26-.615-.58.275-.58.615-.58.614.258.614.58m12.85.502c0 1.774-1.522 3.213-3.4 3.213s-3.402-1.44-3.402-3.213 1.523-3.21 3.402-3.21 3.4 1.437 3.4 3.21"/><path fill="#724c40" d="M23.597 11.45c0 1.12-.963 2.03-2.15 2.03s-2.154-.9-2.154-2.03.964-2.034 2.153-2.034 2.15.9 2.15 2.033"/><path fill="#fefefe" d="M22.76 10.53c0 .32-.277.58-.617.58s-.614-.26-.614-.58.276-.58.614-.58.616.258.616.58"/><g fill-rule="nonzero"><path fill="#f9a21a" d="M17.138 13.065s.824-.068 1.278.787c0 0-.213 1.425-1.278 1.914-1.064-.5-1.277-1.914-1.277-1.914.468-.855 1.277-.787 1.277-.787z"/><path fill="#f08221" d="M17.124 15.386c.98-.448 1.193-1.344 1.193-1.344s-.312.53-1.164.787h-.015c-.866-.258-1.206-.842-1.206-.842s.213.95 1.192 1.4z" opacity=".772"/><path fill="#ff4b61" d="M17.138 14.842l.256-.106s-.07.303-.256.484c-.198-.18-.284-.5-.284-.5.057.03.284.122.284.122z"/><path fill="#0da7e3" d="M30.383 14.06c-.525 0-.95-.4-.95-.916s.425-.916.95-.916.95.4.95.916-.425.917-.95.917zM35.923.666c3.653 0 6.606 2.397 6.59 5.358 0 2.962-2.952 5.36-6.606 5.36-.453 0-.906-.043-1.345-.113a2.088 2.088 0 0 1-1.827 1.072c-1.14 0-2.06-.89-2.06-1.99 0-.3.072-.606.204-.86-.98-.93-1.564-2.143-1.564-3.47 0-2.96 2.952-5.358 6.606-5.358z"/></g><path fill="#fff" d="M34.754 6.847c.003-.406.065-.702.187-.9s.364-.417.727-.686a2.33 2.33 0 0 0 .51-.543 1.16 1.16 0 0 0 .192-.652c0-.266-.073-.474-.218-.625s-.354-.226-.624-.226a.859.859 0 0 0-.565.191c-.154.128-.233.315-.236.56H33.45l-.01-.025c-.008-.556.182-.982.57-1.277s.895-.443 1.52-.443c.67 0 1.2.164 1.58.493s.574.775.574 1.34c0 .367-.112.707-.335 1.02a2.95 2.95 0 0 1-.84.786c-.183.136-.303.273-.36.4s-.085.326-.085.567h-1.3zm1.424 1.93h-1.324V7.7h1.324v1.085z"/></g></svg>