<svg xmlns="http://www.w3.org/2000/svg" xmlns:xlink="http://www.w3.org/1999/xlink" width="53" height="32" viewBox="0 0 43 27">
    <defs>
        <path id="a" d="M.213.25h20.124v20.726H.213V.25z"/>
        <path id="c" d="M12.595 9.045H.135V.19h12.46v8.856z"/>
    </defs>
    <g fill="none" fill-rule="evenodd">
        <path stroke="#715012" stroke-linecap="square" stroke-width="1.26" d="M4.376 11.305L.896 4.95"/>
        <path fill="#684821" fill-rule="nonzero" d="M9.313 13.732s-2.821.448-5.017-3.11c0 0-3.783 9.66 9.07 9.66l-4.053-6.55z"/>
        <g fill-rule="nonzero">
            <path fill="#FAAC18" d="M19.231 24.135s.51 2.203 1.36 1.933c.85-.27-.099-2.271-.099-2.271l-1.26.338z"/>
            <path fill="#FAAC18" d="M20.478 23.81s.935 2.069 1.715 1.663c.779-.419-.539-2.217-.539-2.217l-1.176.554zM14.64 24.135s-.51 2.203-1.36 1.933c-.85-.27.1-2.271.1-2.271l1.26.338z"/>
            <path fill="#FAAC18" d="M13.394 23.81s-.936 2.069-1.715 1.663c-.78-.419.539-2.217.539-2.217l1.176.554z"/>
            <path fill="#D89614" d="M20.506 23.797l-.028.013s.071.162.198.392c.015.04.029.095.043.136-.453.162-.907.283-1.318.378-.113-.324-.17-.581-.17-.581l1.275-.338z"/>
            <path fill="#D89614" d="M20.506 23.797l1.148-.541s.156.216.34.527c-.41.23-.836.406-1.247.555-.028-.041-.042-.082-.07-.122-.086-.244-.17-.406-.17-.42zM13.394 23.81l-.029-.013 1.276.338s-.057.243-.17.554c-.411-.095-.85-.23-1.318-.392.014-.04.028-.068.042-.095.128-.216.199-.392.199-.392z"/>
            <path fill="#D89614" d="M13.365 23.797c0 .013-.085.175-.17.405-.014.027-.028.068-.056.095-.411-.149-.836-.338-1.247-.554.17-.284.311-.487.311-.487l1.162.54z"/>
        </g>
        <path fill="#684821" d="M24.276 19.916c.149.906.494 1.768 1.121 2.516 0 0 6.24-3.674 1.15-10.954 0 0-2.866 4.559-2.28 8.375l.01.063z"/>
        <g transform="matrix(-1 0 0 1 27.229 3.314)">
            <mask id="b" fill="#fff">
                <use xlink:href="#a"/>
            </mask>
            <path fill="#A77D43" d="M16.648 2.225c-2.496-.85-4.631-1.116-6.374-1.095-1.74-.021-3.875.245-6.37 1.095 0 0-2.09-2.147-2.583-1.964C.83.445-1.672 13.02 3 18.208c1.912 2.12 4.511 2.787 7.273 2.768 2.69.02 5.364-.648 7.275-2.768C22.223 13.022 19.719.445 19.229.26a.193.193 0 0 0-.068-.012c-.591 0-2.513 1.976-2.513 1.976" mask="url(#b)"/>
        </g>
        <path fill="#FEFEFE" d="M12.429 10.018c0 .32-.275.581-.615.581-.34 0-.614-.26-.614-.58 0-.322.274-.582.614-.582.34 0 .615.26.615.581"/>
        <g transform="matrix(-1 0 0 1 23.318 15.285)">
            <mask id="d" fill="#fff">
                <use xlink:href="#c"/>
            </mask>
            <path fill="#EEE2DD" d="M.135 5.917c0 .514.072 1.01.212 1.484 1.725 1.24 3.82 1.658 6.018 1.644 2.142.016 4.275-.407 6.02-1.651a5.32 5.32 0 0 0 .21-1.477c0-3.164-2.788-5.728-6.23-5.728-3.441 0-6.23 2.564-6.23 5.728" mask="url(#d)"/>
        </g>
        <g>
            <path fill="#EEE2DD" d="M21.727 15.542c-2.2 0-3.995-.982-4.534-2.513-.45 1.531-2.333 2.513-4.535 2.513-2.576 0-4.664-1.969-4.664-4.4s2.378-5.525 4.664-4.403c2.207 1.084 6.174 1.484 9.07 0 .334-.172.671-.25 1.005-.25 1.915 0 3.658 2.58 3.658 4.652 0 2.432-2.088 4.401-4.664 4.401z"/>
            <path fill="#FEFEFE" d="M15.776 11.031c0 1.774-1.525 3.213-3.402 3.213-1.88 0-3.404-1.439-3.404-3.213s1.524-3.211 3.404-3.211c1.877 0 3.402 1.437 3.402 3.211"/>
            <path fill="#724C40" d="M14.938 11.45c0 1.12-.962 2.03-2.153 2.03-1.187 0-2.15-.91-2.15-2.03 0-1.124.963-2.034 2.15-2.034 1.19 0 2.153.91 2.153 2.033"/>
            <path fill="#FEFEFE" d="M12.424 10.529c0 .32-.275.58-.614.58-.34 0-.615-.26-.615-.58 0-.322.275-.58.615-.58.34 0 .614.258.614.58M25.273 11.031c0 1.774-1.522 3.213-3.401 3.213-1.88 0-3.402-1.439-3.402-3.213s1.523-3.211 3.402-3.211c1.879 0 3.401 1.437 3.401 3.211"/>
            <path fill="#724C40" d="M23.597 11.45c0 1.12-.963 2.03-2.15 2.03-1.19 0-2.154-.91-2.154-2.03 0-1.124.964-2.034 2.153-2.034 1.188 0 2.151.91 2.151 2.033"/>
            <path fill="#FEFEFE" d="M22.76 10.529c0 .32-.277.58-.617.58-.338 0-.614-.26-.614-.58 0-.322.276-.58.614-.58.34 0 .616.258.616.58"/>
            <g fill-rule="nonzero">
                <path fill="#F9A21A" d="M17.138 13.065s.824-.068 1.278.787c0 0-.213 1.425-1.278 1.914-1.064-.49-1.277-1.914-1.277-1.914.468-.855 1.277-.787 1.277-.787z"/>
                <path fill="#F08221" d="M17.124 15.386c.98-.448 1.193-1.344 1.193-1.344s-.312.53-1.164.787h-.015c-.866-.258-1.206-.842-1.206-.842s.213.95 1.192 1.399z" opacity=".772"/>
                <path fill="#FF4B61" d="M17.138 14.842s.213-.076.256-.106c0 0-.071.303-.256.484-.198-.181-.284-.5-.284-.5.057.03.284.122.284.122z"/>
            </g>
        </g>
        <path fill="#0DA7E3" fill-rule="nonzero" d="M30.383 14.06c-.525 0-.95-.41-.95-.916s.425-.916.95-.916c.525 0 .95.41.95.916 0 .507-.425.917-.95.917zM35.923.666c3.653 0 6.606 2.397 6.591 5.358 0 2.962-2.952 5.359-6.606 5.359-.453 0-.906-.043-1.345-.113a2.088 2.088 0 0 1-1.827 1.072c-1.14 0-2.06-.889-2.06-1.989 0-.31.072-.606.204-.86-.98-.93-1.564-2.143-1.564-3.469 0-2.96 2.952-5.358 6.606-5.358z"/>
        <path fill="#FFF" d="M34.754 6.847c.003-.406.065-.702.187-.89.121-.189.364-.417.727-.686.213-.168.383-.35.51-.543a1.16 1.16 0 0 0 .192-.652c0-.266-.073-.474-.218-.625-.146-.15-.354-.226-.624-.226a.859.859 0 0 0-.565.191c-.154.128-.233.315-.236.56h-1.278l-.01-.025c-.008-.556.182-.982.57-1.277.389-.295.895-.443 1.52-.443.671 0 1.199.164 1.581.493.383.328.574.775.574 1.34 0 .367-.112.707-.335 1.02a2.95 2.95 0 0 1-.84.786c-.183.136-.303.273-.36.41-.057.138-.085.326-.085.567h-1.31zm1.424 1.93h-1.324V7.69h1.324v1.085z"/>
    </g>
</svg>
