<svg xmlns="http://www.w3.org/2000/svg" xmlns:xlink="http://www.w3.org/1999/xlink" width="56" height="48" viewBox="0 0 56 48" style="transform: scale(-1,1);">
    <defs>
        <filter id="a" width="120.8%" height="124.4%" x="-10.4%" y="-7.8%" filterUnits="objectBoundingBox">
            <feOffset dy="2" in="SourceAlpha" result="shadowOffsetOuter1"/>
            <feGaussianBlur in="shadowOffsetOuter1" result="shadowBlurOuter1" stdDeviation="1.5"/>
            <feColorMatrix in="shadowBlurOuter1" result="shadowMatrixOuter1" values="0 0 0 0 0 0 0 0 0 0 0 0 0 0 0 0 0 0 0.205785779 0"/>
            <feMerge>
                <feMergeNode in="shadowMatrixOuter1"/>
                <feMergeNode in="SourceGraphic"/>
            </feMerge>
        </filter>
        <path id="b" d="M.376.458h35.5v38.049H.376V.458z"/>
        <path id="d" d="M22.218 16.605H.238V.346h21.98v16.259z"/>
    </defs>
    <g fill="none" fill-rule="evenodd" filter="url(#a)" transform="translate(3)">
        <path stroke="#715012" stroke-linecap="square" stroke-width="1.5" d="M6.74 15.586L.6 3.919"/>
        <path fill="#684821" fill-rule="nonzero" d="M15.448 20.041s-4.976.823-8.85-5.707c0 0-6.673 17.733 16 17.733l-7.15-12.026z"/>
        <g fill-rule="nonzero">
            <path fill="#FAAC18" d="M32.945 39.138s.9 4.046 2.4 3.55c1.499-.497-.176-4.17-.176-4.17l-2.224.62z"/>
            <path fill="#FAAC18" d="M35.144 38.543s1.65 3.797 3.025 3.052c1.374-.77-.95-4.07-.95-4.07l-2.075 1.018zM24.847 39.138s-.9 4.046-2.4 3.55c-1.5-.497.175-4.17.175-4.17l2.225.62z"/>
            <path fill="#FAAC18" d="M22.647 38.543s-1.65 3.797-3.024 3.052c-1.375-.77.95-4.07.95-4.07l2.074 1.018z"/>
            <path fill="#D89614" d="M35.194 38.518l-.05.025s.125.297.35.72c.025.074.05.173.075.248-.8.297-1.6.52-2.324.694-.2-.595-.3-1.067-.3-1.067l2.25-.62z"/>
            <path fill="#D89614" d="M35.194 38.518l2.025-.993s.275.397.6.968c-.725.422-1.475.745-2.2 1.018-.05-.075-.075-.15-.125-.224-.15-.447-.3-.744-.3-.77zM22.647 38.543l-.05-.025 2.25.62s-.1.447-.3 1.018c-.725-.174-1.5-.422-2.325-.72.025-.074.05-.124.075-.174.225-.397.35-.72.35-.72z"/>
            <path fill="#D89614" d="M22.597 38.518c0 .025-.15.322-.3.744-.025.05-.05.124-.1.174a17.4 17.4 0 0 1-2.2-1.018c.3-.52.55-.893.55-.893l2.05.993z"/>
        </g>
        <path fill="#684821" d="M41.874 31.368c.273 1.663.891 3.247 2.007 4.626 0 0 10.976-6.669 1.91-20.078 0 0-5.01 8.33-3.935 15.336l.018.116z"/>
        <g transform="matrix(-1 0 0 1 47.053 .916)">
            <mask id="c" fill="#fff">
                <use xlink:href="#b"/>
            </mask>
            <path fill="#A77D43" d="M29.367 4.084c-4.402-1.56-8.17-2.048-11.243-2.01-3.07-.038-6.837.45-11.236 2.01 0 0-3.69-3.942-4.558-3.606-.866.338-5.28 23.427 2.966 32.947 3.37 3.891 7.956 5.117 12.828 5.081 4.744.036 9.463-1.19 12.833-5.081 8.245-9.52 3.83-32.609 2.964-32.947a.329.329 0 0 0-.12-.02c-1.043 0-4.434 3.626-4.434 3.626" mask="url(#c)"/>
        </g>
        <path fill="#FEFEFE" d="M20.945 13.224c0 .588-.484 1.066-1.084 1.066-.6 0-1.084-.478-1.084-1.066 0-.59.484-1.066 1.084-1.066.6 0 1.084.475 1.084 1.066"/>
        <g transform="matrix(-1 0 0 1 40.154 22.893)">
            <mask id="e" fill="#fff">
                <use xlink:href="#d"/>
            </mask>
            <path fill="#EEE2DD" d="M.237 10.862c0 .944.129 1.854.375 2.724 3.044 2.277 6.738 3.045 10.616 3.018 3.78.03 7.542-.746 10.62-3.031.24-.866.37-1.772.37-2.711C22.218 5.054 17.3.346 11.228.346 5.158.346.238 5.054.238 10.862" mask="url(#e)"/>
        </g>
        <g>
            <path fill="#EEE2DD" d="M37.348 23.365c-3.883 0-7.048-1.803-8-4.614-.794 2.811-4.114 4.614-7.999 4.614-4.544 0-8.226-3.615-8.226-8.08 0-4.462 4.194-10.141 8.226-8.081 3.894 1.99 10.891 2.725 15.999 0a3.72 3.72 0 0 1 1.773-.458c3.38 0 6.453 4.735 6.453 8.54 0 4.464-3.683 8.079-8.226 8.079z"/>
            <path fill="#FEFEFE" d="M26.85 15.084c0 3.256-2.69 5.898-6.001 5.898-3.317 0-6.005-2.642-6.005-5.898 0-3.257 2.688-5.896 6.005-5.896 3.31 0 6 2.64 6 5.896"/>
            <path fill="#724C40" d="M25.371 15.85c0 2.058-1.697 3.73-3.797 3.73-2.095 0-3.795-1.672-3.795-3.73 0-2.061 1.7-3.732 3.795-3.732 2.1 0 3.797 1.67 3.797 3.733"/>
            <path fill="#FEFEFE" d="M20.937 14.161c0 .589-.485 1.066-1.084 1.066-.6 0-1.085-.477-1.085-1.066 0-.59.485-1.066 1.085-1.066s1.084.476 1.084 1.066M43.603 15.084c0 3.256-2.685 5.898-6 5.898s-6-2.642-6-5.898c0-3.257 2.685-5.896 6-5.896s6 2.64 6 5.896"/>
            <path fill="#724C40" d="M40.647 15.85c0 2.058-1.7 3.73-3.795 3.73-2.098 0-3.798-1.672-3.798-3.73 0-2.061 1.7-3.732 3.798-3.732 2.095 0 3.795 1.67 3.795 3.733"/>
            <path fill="#FEFEFE" d="M39.169 14.161c0 .589-.487 1.066-1.087 1.066a1.076 1.076 0 0 1-1.084-1.066c0-.59.487-1.066 1.084-1.066.6 0 1.087.476 1.087 1.066"/>
            <g fill-rule="nonzero">
                <path fill="#F9A21A" d="M29.253 18.816s1.453-.124 2.254 1.445c0 0-.376 2.617-2.254 3.514-1.878-.897-2.254-3.514-2.254-3.514.826-1.57 2.254-1.445 2.254-1.445z"/>
                <path fill="#F08221" d="M29.228 23.077c1.728-.822 2.104-2.467 2.104-2.467s-.551.972-2.054 1.445h-.025c-1.528-.473-2.129-1.545-2.129-1.545s.376 1.745 2.104 2.567z" opacity=".772"/>
                <path fill="#FF4B61" d="M29.253 22.055s.376-.124.45-.174c0 0-.124.498-.45.797-.35-.299-.5-.822-.5-.822.1.05.5.2.5.2z"/>
            </g>
        </g>
    </g>
</svg>
