<svg xmlns="http://www.w3.org/2000/svg" xmlns:xlink="http://www.w3.org/1999/xlink" width="67" height="67" viewBox="0 0 67 67">
    <defs>
        <path id="a" d="M20.266.08H0v27.622h20.266V.081z"/>
        <path id="b" d="M.009 6.77h4.288V.165H.01z"/>
        <path id="d" d="M.217 6.77h4.288V.165H.217z"/>
        <path id="f" d="M41.538 38.433c.258-.948.398-1.942.398-2.968 0-6.356-5.279-11.509-11.79-11.509-6.511 0-11.79 5.153-11.79 11.509 0 1.031.141 2.03.402 2.981 3.266 2.49 7.228 3.335 11.388 3.302 4.054.033 8.09-.816 11.392-3.315"/>
        <path id="h" d="M.035 6.908a34.513 34.513 0 0 0 4.254 2.453V.053H.035v6.855z"/>
        <path id="j" d="M.15 8.145h20.37V.065H.15z"/>
    </defs>
    <g fill="none" fill-rule="evenodd">
        <path fill="#55B5E3" d="M0 33.335C0 14.954 14.918 0 33.255 0c18.337 0 33.254 14.954 33.254 33.335S51.592 66.67 33.255 66.67C14.918 66.67 0 51.716 0 33.335z"/>
        <path fill="#465D8F" d="M32.559 12.33c.005.331-.364.607-.826.615-.462.008-.84-.254-.847-.587l-.01-.601c-.006-.332.364-.608.825-.616.462-.008.841.255.847.587l.01.601"/>
        <path fill="#122738" d="M21.236 22.192s-1.675-8.18 8.716-9.944c0 0 13.954-2.123 14.312 8.915 0 0-6.342-2.58-23.028 1.029"/>
        <path fill="#465D8F" d="M21.236 22.192s11.945-11.52 22.212-8.902c0 0 7.188 2.32.816 7.873 0 0-6.8-1.671-23.028 1.029M23.879 27.35c-2.239 1.03-4.923 3.32-6.55 6.617-1.626 3.295-2.194 7.597-2.736 10.93-.542 3.333-1.057 5.697.12 6.887 1.175 1.19 4.042 1.205 8.98 1.213 4.937.007 11.945.007 16.779-.084 4.834-.092 7.493-.277 9.39-.437 1.898-.16 3.034-.296 3.131-2.978.096-2.681-.845-7.91-1.5-12.008-.652-4.1-1.017-7.07-2.073-8.839-1.055-1.768-2.802-2.336-6.204-2.447-3.401-.112-8.458.233-11.882.29-3.424.057-5.217-.173-7.455.857"/>
        <g transform="translate(3.192 17.454)">
            <g fill="#F38217">
                <path d="M51.773 34.387s9.299-10.218-4.146-21.653c0 0-4.076 15.791 4.146 21.653M7.473 34.387s-9.298-10.218 4.147-21.653c0 0 4.076 15.791-4.147 21.653"/>
            </g>
            <g transform="translate(23.59 39.701)">
                <mask id="c" fill="#fff">
                    <use xlink:href="#b"/>
                </mask>
                <path fill="#773D19" d="M2.846 4.695l-.83-.835v-2.3c0-.31-.23-.56-.516-.56-.285 0-.516.25-.516.56v2.215a.483.483 0 0 0-.131.117l-.74.958a.553.553 0 0 0 .06.736.456.456 0 0 0 .678-.065l.215-.278v.234c0 .289.216.523.482.523s.482-.234.482-.523V5.3l.16.162c.195.196.5.184.681-.028a.554.554 0 0 0-.025-.738" mask="url(#c)"/>
            </g>
            <g transform="translate(32.187 39.701)">
                <mask id="e" fill="#fff">
                    <use xlink:href="#d"/>
                </mask>
                <path fill="#773D19" d="M3.846 4.695l-.83-.835v-2.3c0-.31-.23-.56-.516-.56-.285 0-.516.25-.516.56v2.215a.479.479 0 0 0-.131.117l-.74.958a.553.553 0 0 0 .06.736.456.456 0 0 0 .678-.065l.215-.278v.234c0 .289.216.523.482.523s.482-.234.482-.523V5.3l.16.162c.195.196.5.184.681-.028a.554.554 0 0 0-.025-.738" mask="url(#e)"/>
            </g>
            <path fill="#FFB726" d="M47.09.046c-.932-.368-4.888 3.946-4.888 3.946-4.72-1.707-8.762-2.244-12.056-2.2-3.294-.044-7.336.493-12.056 2.2 0 0-3.956-4.314-4.887-3.946-.931.369-5.663 25.64 3.18 36.06 3.614 4.259 8.533 5.603 13.763 5.561 5.087.042 10.149-1.302 13.763-5.56 8.843-10.42 4.11-35.692 3.18-36.06"/>
            <path fill="#FFF0BE" d="M38.727 5.76c-4.178 2.178-11.684 2.982-17.162 0-4.283-2.33-8.824 3.96-8.824 8.846 0 4.885 3.95 8.845 8.824 8.845 4.166 0 7.655-2.894 8.581-6.785.926 3.89 4.416 6.785 8.581 6.785 4.873 0 8.824-3.96 8.824-8.845 0-4.885-4.5-11.098-8.824-8.845"/>
            <path fill="#FFF" d="M32.735 14.392c0 3.565 2.882 6.454 6.438 6.454 3.556 0 6.439-2.89 6.439-6.454 0-3.565-2.883-6.454-6.439-6.454s-6.438 2.89-6.438 6.454"/>
            <path fill="#714A3F" d="M34.286 14.975a4.077 4.077 0 0 0 4.072 4.083 4.077 4.077 0 0 0 4.073-4.083 4.078 4.078 0 0 0-4.073-4.082 4.078 4.078 0 0 0-4.072 4.082"/>
            <path fill="#FFF" d="M38.707 12.992a1.165 1.165 0 0 0 2.327 0c0-.644-.52-1.166-1.163-1.166s-1.164.522-1.164 1.166M27.558 14.392c0 3.565-2.883 6.454-6.439 6.454s-6.438-2.89-6.438-6.454c0-3.565 2.882-6.454 6.438-6.454 3.556 0 6.439 2.89 6.439 6.454"/>
            <path fill="#714A3F" d="M26.006 14.975a4.077 4.077 0 0 1-4.072 4.083 4.077 4.077 0 0 1-4.073-4.083 4.078 4.078 0 0 1 4.073-4.082 4.077 4.077 0 0 1 4.072 4.082"/>
            <path fill="#FFF" d="M21.585 12.992a1.165 1.165 0 0 1-2.328 0c0-.644.521-1.166 1.164-1.166.643 0 1.164.522 1.164 1.166"/>
            <path fill="#FFA300" d="M27.834 17.174l2.312 3.2v-5.399z"/>
            <path fill="#FF890D" d="M30.146 14.975v5.4l2.312-3.201z"/>
            <path fill="#C9E9EE" d="M41.538 38.433c.258-.948.398-1.942.398-2.968 0-6.356-5.279-11.509-11.79-11.509-6.511 0-11.79 5.153-11.79 11.509 0 1.031.141 2.03.402 2.981 3.266 2.49 7.228 3.335 11.388 3.302 4.054.033 8.09-.816 11.392-3.315"/>
            <mask id="g" fill="#fff">
                <use xlink:href="#f"/>
            </mask>
            <use fill="#FFF0BE" xlink:href="#f"/>
            <g mask="url(#g)">
                <path fill="#00A9A7" d="M29.602 26.085s-2.345 8.058-2.652 8.737c-.307.679 2.29 3.824 2.878 4 .588.177 2.785-2.314 2.993-2.646.209-.333-1.878-10.179-1.878-10.179l-1.341.088"/>
                <path fill="#465D8F" d="M27.58 32.89a68.43 68.43 0 0 1-.488 1.545l4.145 3.478c.439-.416.88-.892 1.188-1.246l-4.845-3.776M28.524 29.752c-.135.455-.273.92-.41 1.376l4.555 3.636a89.772 89.772 0 0 0-.365-2.03l-3.78-2.982M30.08 24.194c-.251-.046-.586-.121-.883-.01-.297.112-.557.41-.686.699-.13.288-.13.566-.06 1.05.069.484.207 1.174.452 1.577.245.403.597.52 1.009.54.411.02.882-.057 1.24-.268.356-.211.6-.556.72-.98.122-.422.122-.922-.099-1.356-.22-.434-.662-.802-.968-.995-.305-.194-.473-.211-.725-.257"/>
                <path fill="#FFF" d="M27.414 23.719c-.82.056-1.897.13-2.502.208-.604.078-.735.16-.58.583.156.422.597 1.184 1.189 1.816.591.631 1.333 1.133 1.87 1.338.537.205.87.113 1.325-.093.455-.206 1.032-.527 1.299-1.111.267-.584.225-1.433.063-1.956-.162-.523-.443-.72-.864-.8-.42-.08-.98-.042-1.8.015"/>
                <path fill="#FFF" d="M32.533 23.367c.82-.056 1.898-.13 2.507-.135.61-.005.75.058.654.498-.096.44-.429 1.254-.929 1.96-.5.707-1.165 1.306-1.746 1.61-.581.304-1.077.315-1.555.173-.479-.142-.941-.437-1.209-1.007-.268-.57-.342-1.416-.253-1.957.089-.54.34-.774.746-.91.406-.138.966-.176 1.785-.232"/>
            </g>
        </g>
        <path fill="#7F3F95" d="M18.38 50.182"/>
        <g transform="translate(14.09 50.129)">
            <mask id="i" fill="#fff">
                <use xlink:href="#h"/>
            </mask>
            <path fill="#7F3F95" d="M4.094.166C2.147 1.453.034 12.956.034 12.956S2.148 1.452 4.095.165" mask="url(#i)"/>
        </g>
        <g fill="#00A9A7">
            <path d="M15.421 32.73c.3.763-.121 4.391-.136 6.122-.008.916.92 7.46.759 7.811-.125.273-.74.615-1.018.33-1.065-1.09-1.7-5.419-1.635-8.918.067-3.498.508-4.737.538-5.447.03-.71.21-.955.342-.955.29.012.85.292 1.15 1.056zM51.599 33.102c-.3.763.12 4.392.135 6.123.008.916-.919 7.46-.758 7.81.124.274.74.616 1.018.331 1.065-1.09 1.7-5.419 1.634-8.918-.066-3.499-.507-4.738-.537-5.447-.031-.71-.21-.955-.343-.955-.29.012-.849.292-1.15 1.056z"/>
        </g>
    </g>
</svg>
