<svg width="95" height="40" viewBox="12 12 83 37" xmlns="http://www.w3.org/2000/svg" xmlns:xlink="http://www.w3.org/1999/xlink"><title>GS logo</title><defs><path d="M.576 30.531l1.436-1.71a4.625 4.625 0 0 0 2.816.942c.486 0 .694-.127.694-.345v-.023c0-.23-.254-.355-1.118-.527-1.804-.367-3.392-.884-3.392-2.582v-.022c0-1.526 1.198-2.708 3.415-2.708 1.554 0 2.702.367 3.634 1.102L6.75 26.47a4.224 4.224 0 0 0-2.414-.791c-.402 0-.588.137-.588.332v.023c0 .219.22.356 1.069.516 2.062.38 3.441.975 3.441 2.593v.023c0 1.686-1.39 2.719-3.555 2.719-1.633 0-3.104-.46-4.127-1.354z" id="a"/><path d="M8.524 27.744v-.023c0-2.398 1.876-4.188 4.278-4.188 1.77 0 2.968.86 3.646 2.088l-2.22 1.297c-.3-.574-.724-.976-1.46-.976-.91 0-1.508.792-1.508 1.756v.023c0 1.044.622 1.778 1.508 1.778.758 0 1.183-.414 1.516-1.01l2.221 1.25c-.678 1.193-1.808 2.169-3.809 2.169-2.228 0-4.172-1.675-4.172-4.164z" id="b"/><path id="c" d="M16.8539269 23.7055238L19.5447945 23.7055238 19.5447945 26.5394286 22.0044749 26.5394286 22.0044749 23.7055238 24.6953425 23.7055238 24.6953425 31.735619 22.0044749 31.735619 22.0044749 28.856 19.5447945 28.856 19.5447945 31.735619 16.8539269 31.735619z"/><path d="M31.335 27.744v-.023c0-.953-.655-1.813-1.694-1.813-1.023 0-1.667.849-1.667 1.79v.023c0 .952.655 1.812 1.69 1.812 1.023 0 1.671-.849 1.671-1.79zm-6.075 0v-.023c0-2.33 1.922-4.188 4.404-4.188 2.486 0 4.385 1.836 4.385 4.165v.023c0 2.329-1.922 4.187-4.408 4.187-2.482 0-4.381-1.836-4.381-4.164z" id="d"/><path d="M40.503 27.744v-.023c0-.953-.655-1.813-1.69-1.813-1.027 0-1.668.849-1.668 1.79v.023c0 .952.652 1.812 1.69 1.812 1.024 0 1.668-.849 1.668-1.79zm-6.075 0v-.023c0-2.33 1.921-4.188 4.408-4.188 2.482 0 4.38 1.836 4.38 4.165v.023c0 2.329-1.92 4.187-4.403 4.187-2.486 0-4.385-1.836-4.385-4.164z" id="e"/><path id="f" d="M43.7815525 23.7055238L46.4724201 23.7055238 46.4724201 29.4411429 50.2547945 29.4411429 50.2547945 31.735619 43.7815525 31.735619z"/><path d="M50.926 30.531l1.436-1.71a4.628 4.628 0 0 0 2.82.942c.481 0 .69-.127.69-.345v-.023c0-.23-.254-.355-1.115-.527-1.808-.367-3.396-.884-3.396-2.582v-.022c0-1.526 1.198-2.708 3.419-2.708 1.55 0 2.702.367 3.635 1.102l-1.316 1.812a4.215 4.215 0 0 0-2.414-.791c-.401 0-.583.137-.583.332v.023c0 .219.216.356 1.068.516 2.058.38 3.438.975 3.438 2.593v.023c0 1.686-1.391 2.719-3.555 2.719-1.634 0-3.104-.46-4.127-1.354z" id="g"/><path d="M66.328 28.51v-.023c0-.642-.478-1.154-1.076-1.154-.607 0-1.05.512-1.05 1.13v.024c0 .643.477 1.154 1.076 1.154.607 0 1.05-.511 1.05-1.13zm-4.726 0v-.023c0-1.833 1.527-3.403 3.676-3.403 2.134 0 3.65 1.547 3.65 3.38v.023c0 1.833-1.527 3.403-3.676 3.403-2.134 0-3.65-1.546-3.65-3.38z" id="h"/><path d="M69.784 25.238h2.706v1.31c.372-.881.967-1.453 2.04-1.404v2.867h-.285c-1.144 0-1.755.63-1.755 2.07v1.655h-2.706v-6.498z" id="i"/><path d="M79.73 28.118v-.024c0-.559-.429-1.011-1.088-1.011-.667 0-1.084.464-1.084 1.035v.024c0 .559.428 1 1.084 1 .67 0 1.087-.452 1.087-1.024zm-4.75 4.736l.838-1.63c.728.38 1.455.619 2.35.619 1.012 0 1.55-.524 1.55-1.428v-.19c-.372.415-.978.892-1.887.892-1.68 0-2.9-1.19-2.9-2.987v-.024c0-1.82 1.243-3.022 2.748-3.022.951 0 1.512.356 1.99.845v-.69h2.71v4.855c0 1.201-.25 2.022-.85 2.617-.583.583-1.478.952-2.933.952-1.444 0-2.566-.285-3.616-.809z" id="j"/><path d="M61.193 30.36c0 .615-.5 1.115-1.118 1.115a1.117 1.117 0 1 1 0-2.231c.617 0 1.118.5 1.118 1.115z" id="k"/><path d="M0 10.182C0 4.584 4.36 0 10.324 0c3.547 0 5.685.956 7.737 2.7l-2.726 3.29c-1.52-1.265-2.873-1.996-5.15-1.996-3.152 0-5.656 2.784-5.656 6.131v.057c0 3.6 2.478 6.244 5.964 6.244 1.578 0 2.982-.394 4.082-1.181v-2.813h-4.36v-3.74h8.55v8.55c-2.025 1.716-4.812 3.122-8.411 3.122C4.221 20.364 0 16.06 0 10.238v-.056z" id="l"/><path d="M26.07 8.397c.863-1.988 2.239-3.306 4.665-3.306.101 0 .199.002.3.007v4.446h-.23c-2.935 0-4.736 1.705-4.736 5.284v5.536h-4.417V5.377h4.417v3.02z" id="m"/><path d="M31.757 12.727c0-4.188 3.139-7.636 7.636-7.636 5.156 0 7.52 3.804 7.52 7.965 0 .327-.027.711-.058 1.094H36.107c.432 1.889 1.816 2.874 3.775 2.874 1.47 0 2.534-.438 3.745-1.505l2.507 2.107c-1.439 1.697-3.513 2.738-6.31 2.738-4.639 0-8.067-3.094-8.067-7.582v-.055zm7.636-4.297c-1.817 0-2.997 1.232-3.344 3.12h6.599c-.259-1.861-1.412-3.12-3.255-3.12z" id="n"/><path d="M48.915 6.28c1.642-.719 3.254-1.19 5.785-1.19 2.308 0 3.979.61 5.032 1.661 1.113 1.107 1.616 2.74 1.616 4.732v8.604h-4.091v-1.604c-1.027 1.134-2.446 1.88-4.504 1.88-2.81 0-5.118-1.604-5.118-4.537v-.055c0-3.237 2.475-4.731 6.008-4.731 1.503 0 2.587.248 3.644.608V11.4c0-1.742-1.087-2.71-3.198-2.71-1.615 0-2.754.303-4.117.801l-1.057-3.21zm2.807 9.38c0 1.135.95 1.799 2.311 1.799 1.973 0 3.31-1.08 3.31-2.601v-.747c-.723-.332-1.668-.554-2.7-.554-1.808 0-2.921.72-2.921 2.048v.056z" id="o"/><path d="M64.547 1.455h4.171v3.798h3.456v3.604h-3.456v6.35c0 .97.412 1.442 1.344 1.442.768 0 1.455-.195 2.057-.528v3.383c-.878.527-1.891.86-3.29.86-2.553 0-4.282-1.026-4.282-4.464V8.857H62.79V5.253h1.756V1.455z" id="p"/><path d="M80.255 1.456c-1.557.03-2.528.73-2.493 2.35l-.644 9.223c.024 1.136.3 1.472 1.257 1.454.655-.012.948-.359 1.283-1.568l3.067-9.098c.789-1.398-.16-2.362-2.33-2.362l-.14.001zm-2.59 14.718l.105-.001c1.303 0 1.935.472 1.955 1.44.015.739-.145 1.651-.73 2.202-.382.378-.765.527-1.873.548-1.342.026-2.04-.416-2.06-1.411-.016-.739.171-1.652.73-2.203.382-.377.795-.555 1.872-.575z" id="q"/></defs><g transform="translate(12 14)" fill="none" fill-rule="evenodd"><use fill="#2BADE3" xlink:href="#a"/><use fill="#2BADE3" xlink:href="#b"/><use fill="#2BADE3" xlink:href="#c"/><use fill="#2BADE3" xlink:href="#d"/><use fill="#2BADE3" xlink:href="#e"/><use fill="#2BADE3" xlink:href="#f"/><use fill="#2BADE3" xlink:href="#g"/><use fill="#2BADE3" xlink:href="#h"/><use fill="#2BADE3" xlink:href="#i"/><use fill="#2BADE3" xlink:href="#j"/><use fill="#2BADE3" xlink:href="#k"/><use fill="#4E575E" xlink:href="#l"/><use fill="#4E575E" xlink:href="#m"/><use fill="#4E575E" xlink:href="#n"/><use fill="#4E575E" xlink:href="#o"/><use fill="#4E575E" xlink:href="#p"/><use fill="#2BADE3" xlink:href="#q"/></g></svg>